<svg viewBox="78.08 85.28 241.6 231.2" xmlns:xlink="http://www.w3.org/1999/xlink" xmlns="http://www.w3.org/2000/svg" version="1.1" id="svg" style="max-height: 500px" width="241.6" height="231.2"><g id="svgg"><path fill-rule="evenodd" fill="#0b293a" stroke="none" d="M101.499 73.066 C 82.815 74.729,68.855 88.012,66.810 106.073 C 66.493 108.878,66.402 135.686,66.486 202.344 L 66.602 294.727 67.640 298.484 C 71.717 313.230,82.176 323.119,97.266 326.493 C 99.966 327.097,108.047 327.148,200.391 327.148 L 300.586 327.148 304.492 326.076 C 319.428 321.977,329.397 311.512,332.868 296.289 L 333.759 292.383 333.890 203.125 C 334.029 108.464,333.995 106.340,332.219 100.195 C 327.908 85.277,315.733 75.145,299.609 73.059 C 296.099 72.605,106.605 72.612,101.499 73.066 M108.398 129.436 C 115.122 131.228,116.126 133.190,116.423 145.117 C 116.658 154.559,116.846 155.618,118.542 157.093 C 119.966 158.331,119.787 159.020,117.470 161.211 C 113.759 164.721,112.909 164.685,110.352 160.909 L 109.180 159.180 107.330 161.002 C 100.626 167.605,90.859 164.173,90.316 155.022 C 89.892 147.874,95.881 142.601,104.457 142.573 C 107.542 142.562,107.813 142.353,107.813 139.976 C 107.813 135.016,101.736 133.935,99.387 138.477 L 98.579 140.039 95.285 139.901 C 91.377 139.737,90.861 139.436,91.210 137.525 C 92.333 131.374,100.771 127.403,108.398 129.436 M190.807 129.933 C 196.101 131.752,197.262 134.561,197.274 145.583 C 197.283 153.894,197.587 155.439,199.554 157.189 C 200.014 157.599,200.391 158.221,200.391 158.573 C 200.391 159.481,195.458 164.063,194.480 164.063 C 193.832 164.063,191.103 161.310,190.638 160.187 L 190.169 159.055 188.799 160.570 C 182.086 168.001,171.128 164.111,171.128 154.297 C 171.128 147.501,175.487 143.572,183.935 142.751 C 185.144 142.633,186.724 142.447,187.447 142.336 L 188.762 142.135 188.590 139.759 C 188.236 134.866,182.566 133.989,180.251 138.470 L 179.447 140.026 176.344 139.912 C 171.496 139.735,171.100 139.336,172.480 136.023 C 174.860 130.310,183.523 127.431,190.807 129.933 M142.773 129.730 C 144.548 130.218,147.521 133.034,147.723 134.419 C 147.833 135.166,148.031 135.006,149.066 133.335 C 152.538 127.732,161.086 127.962,164.177 133.741 C 165.201 135.654,165.772 161.968,164.815 163.121 C 164.036 164.060,157.566 163.890,157.045 162.916 C 156.792 162.444,156.641 157.820,156.641 150.594 L 156.641 139.027 155.682 138.068 C 153.581 135.967,150.134 137.306,149.226 140.576 C 149.007 141.362,148.832 146.604,148.830 152.363 C 148.828 164.495,149.145 163.672,144.467 163.672 C 140.027 163.672,140.296 164.470,140.311 151.324 C 140.326 138.059,140.053 137.109,136.227 137.109 C 132.882 137.109,132.422 138.899,132.422 151.900 C 132.422 164.540,132.739 163.672,128.125 163.672 C 123.438 163.672,123.828 165.213,123.828 146.680 C 123.828 128.275,123.503 129.688,127.734 129.688 C 131.349 129.688,131.640 129.933,131.643 132.988 L 131.645 135.352 132.254 134.180 C 134.310 130.218,138.341 128.513,142.773 129.730 M249.342 130.611 C 260.668 136.153,260.727 157.444,249.432 163.178 C 238.414 168.770,227.871 156.266,231.031 141.355 C 233.095 131.619,241.418 126.735,249.342 130.611 M281.483 129.872 C 283.561 130.489,285.353 132.073,286.577 134.375 C 287.247 135.634,287.305 136.835,287.305 149.609 L 287.305 163.477 283.652 163.589 C 278.495 163.749,278.906 164.847,278.906 150.911 L 278.906 139.027 277.947 138.068 C 276.126 136.247,273.149 137.017,271.881 139.637 C 271.151 141.144,271.093 142.041,271.088 151.979 C 271.081 164.728,271.468 163.732,266.569 163.589 L 262.695 163.477 262.593 147.116 C 262.477 128.384,262.215 129.688,266.089 129.688 C 270.000 129.688,270.309 129.937,270.330 133.119 L 270.347 135.742 271.077 134.375 C 273.276 130.260,277.148 128.585,281.483 129.872 M226.484 130.156 C 228.455 132.127,226.934 135.921,220.406 145.313 L 215.382 152.539 219.117 152.780 C 226.676 153.267,228.748 155.032,227.956 160.312 C 227.606 162.648,227.100 162.833,223.938 161.777 C 218.047 159.810,212.945 159.851,206.802 161.913 C 203.159 163.136,203.125 163.114,203.125 159.535 C 203.125 155.674,203.239 155.446,210.129 145.497 L 216.073 136.914 211.455 136.818 C 204.728 136.679,205.078 136.863,205.078 133.469 C 205.078 131.778,205.268 130.435,205.547 130.156 C 206.214 129.489,225.817 129.489,226.484 130.156 M241.426 137.030 C 238.624 139.831,238.642 153.893,241.450 156.883 C 243.807 159.391,247.575 157.474,248.436 153.329 C 249.138 149.946,248.805 140.034,247.935 138.403 C 246.494 135.702,243.405 135.051,241.426 137.030 M101.958 148.545 C 97.130 151.098,98.231 158.988,103.284 158.040 C 106.293 157.476,107.790 154.974,107.804 150.488 L 107.813 147.656 105.726 147.656 C 104.307 147.656,103.100 147.941,101.958 148.545 M182.817 148.545 C 178.699 150.723,178.602 157.280,182.678 158.045 C 186.161 158.698,188.672 155.539,188.672 150.503 L 188.672 147.656 186.585 147.656 C 185.167 147.656,183.959 147.941,182.817 148.545 M220.312 165.705 C 223.748 166.992,223.297 173.650,219.325 180.273 C 216.506 184.974,213.623 187.092,214.672 183.691 C 219.203 169.010,219.310 169.282,209.160 169.623 C 202.522 169.846,202.386 169.799,204.785 168.091 C 208.589 165.384,216.293 164.199,220.312 165.705 M121.305 169.203 C 146.891 183.936,180.246 186.414,206.771 175.550 C 211.700 173.531,212.695 173.469,212.695 175.179 C 212.695 178.319,197.570 185.644,185.742 188.232 C 162.607 193.293,135.399 186.520,119.238 171.678 C 116.127 168.821,115.641 167.503,117.595 167.218 C 117.711 167.201,119.381 168.094,121.305 169.203 M281.632 173.182 C 314.736 184.745,292.971 250.751,249.023 272.075 C 220.404 285.962,200.430 271.357,206.570 241.033 C 214.444 202.145,256.281 164.327,281.632 173.182 M130.944 224.506 C 134.679 226.187,138.576 231.131,138.207 233.720 C 138.092 234.525,137.888 234.570,134.400 234.570 L 130.714 234.570 130.395 233.340 C 129.343 229.279,122.709 228.063,119.609 231.362 C 117.190 233.937,116.151 241.088,117.525 245.696 C 119.369 251.876,127.258 253.052,130.665 247.655 L 131.670 246.063 134.878 246.176 L 138.086 246.289 138.044 247.722 C 137.836 254.881,125.588 259.537,117.473 255.542 C 104.832 249.319,106.909 227.258,120.462 223.787 C 122.811 223.185,128.945 223.606,130.944 224.506 M175.053 224.572 C 178.926 226.417,182.276 230.727,181.963 233.462 C 181.722 235.569,174.219 235.243,174.219 233.125 C 174.219 231.041,170.151 228.993,167.046 229.515 C 159.123 230.845,158.605 248.490,166.420 250.832 C 169.619 251.790,173.284 250.206,174.843 247.192 C 175.671 245.590,181.740 245.612,181.967 247.218 C 182.912 253.901,169.924 259.492,162.041 255.797 C 149.269 249.809,150.339 228.293,163.621 224.024 C 166.359 223.144,172.693 223.448,175.053 224.572 M105.035 225.143 C 105.352 225.526,105.449 229.928,105.376 240.671 L 105.273 255.664 101.758 255.664 L 98.242 255.664 98.140 240.626 C 98.083 232.355,98.122 225.368,98.225 225.099 C 98.498 224.388,104.440 224.427,105.035 225.143 M149.126 224.934 C 149.512 225.179,149.596 228.548,149.516 240.456 L 149.414 255.664 145.898 255.664 L 142.383 255.664 142.274 241.016 C 142.140 223.024,141.818 224.608,145.613 224.615 C 147.274 224.619,148.855 224.762,149.126 224.934 M193.555 240.234 L 193.555 255.664 190.146 255.777 L 186.737 255.890 186.630 240.807 C 186.506 223.239,186.204 224.545,190.360 224.692 L 193.555 224.805 193.555 240.234" id="path0"/><path fill-rule="evenodd" fill="#fbfbfb" stroke="none" d="M0.000 200.000 L 0.000 400.000 200.000 400.000 L 400.000 400.000 400.000 200.000 L 400.000 0.000 200.000 0.000 L 0.000 0.000 0.000 200.000 M301.758 73.247 C 317.543 76.233,328.551 86.232,332.714 101.367 L 333.789 105.273 333.903 196.680 C 333.977 256.708,333.880 289.360,333.619 291.797 C 331.787 308.919,321.220 321.489,304.798 326.080 L 300.977 327.148 200.000 327.148 L 99.023 327.148 95.508 326.242 C 80.352 322.337,69.179 310.143,66.808 294.922 C 66.100 290.377,66.273 107.897,66.989 103.791 C 69.797 87.687,82.162 75.890,99.023 73.227 C 104.138 72.419,297.482 72.439,301.758 73.247 M100.586 129.439 C 95.000 130.908,91.406 134.267,91.406 138.019 C 91.406 139.255,91.512 139.368,92.871 139.593 C 95.926 140.098,98.836 139.895,99.071 139.160 C 100.962 133.245,108.203 134.707,108.203 141.003 L 108.203 142.578 106.284 142.578 C 96.096 142.578,89.644 147.812,90.342 155.510 C 90.963 162.355,96.852 165.828,103.561 163.307 C 105.650 162.522,108.980 159.763,108.988 158.810 C 108.990 158.583,109.505 159.293,110.132 160.386 C 112.305 164.175,113.775 164.417,117.067 161.526 C 119.503 159.387,119.943 158.370,118.785 157.559 C 116.834 156.192,116.617 155.092,116.407 145.508 C 116.186 135.429,115.810 133.888,113.069 131.797 C 110.053 129.496,104.416 128.431,100.586 129.439 M183.008 129.168 C 177.684 129.926,173.416 133.040,172.238 137.024 C 171.555 139.335,171.954 139.620,176.100 139.782 L 179.506 139.915 180.213 138.311 C 182.457 133.227,189.063 135.237,189.063 141.003 L 189.063 142.578 186.816 142.585 C 176.927 142.615,171.290 146.872,171.310 154.297 C 171.336 163.990,182.883 167.953,188.948 160.351 L 189.981 159.057 191.139 160.805 C 193.460 164.309,194.654 164.394,198.145 161.301 C 200.371 159.328,200.961 158.007,199.813 157.566 C 197.858 156.816,197.472 154.987,197.265 145.508 C 197.040 135.208,196.673 133.803,193.625 131.595 C 191.235 129.864,186.203 128.713,183.008 129.168 M137.338 129.763 C 135.573 130.251,132.576 133.041,132.198 134.547 C 131.741 136.366,131.393 135.585,131.570 133.138 C 131.793 130.049,131.522 129.846,127.405 130.010 L 124.219 130.138 124.219 146.709 L 124.219 163.281 128.125 163.281 L 132.031 163.281 132.031 153.144 C 132.031 138.785,133.369 135.035,137.729 137.172 C 140.361 138.462,140.410 138.703,140.625 151.493 L 140.820 163.086 144.269 163.281 C 149.238 163.563,148.828 164.585,148.828 151.921 C 148.828 140.300,148.963 139.305,150.759 137.704 C 152.080 136.526,154.422 136.667,155.762 138.005 L 156.836 139.079 156.954 151.156 C 157.058 161.726,157.149 163.247,157.682 163.354 C 158.018 163.422,159.810 163.389,161.666 163.281 L 165.039 163.086 165.142 150.802 C 165.254 137.568,165.024 135.081,163.474 132.739 C 160.149 127.714,151.304 128.621,148.616 134.264 L 147.912 135.742 147.627 134.684 C 146.602 130.883,141.724 128.550,137.338 129.763 M240.625 129.908 C 226.980 133.673,227.240 159.936,240.961 163.925 C 250.420 166.675,258.749 157.191,257.638 144.937 C 256.666 134.211,249.137 127.559,240.625 129.908 M274.938 130.456 C 273.322 131.334,271.179 133.741,270.843 135.059 C 270.416 136.731,270.117 135.927,270.117 133.106 L 270.117 130.273 266.406 130.273 L 262.695 130.273 262.593 146.439 C 262.474 165.324,262.072 163.741,266.954 163.588 L 270.508 163.477 270.705 152.344 C 270.917 140.377,271.129 139.122,273.185 137.682 C 274.548 136.727,277.054 136.946,278.155 138.117 L 279.102 139.124 279.297 151.300 L 279.492 163.477 282.949 163.590 C 287.991 163.755,287.591 165.017,287.435 149.435 L 287.301 136.133 286.298 134.180 C 284.250 130.187,278.752 128.385,274.938 130.456 M205.244 130.601 C 205.130 130.896,205.091 132.261,205.156 133.635 L 205.273 136.133 210.840 136.241 C 213.901 136.301,216.406 136.424,216.406 136.515 C 216.406 136.606,213.793 140.432,210.599 145.017 C 203.242 155.577,203.516 155.024,203.516 159.356 C 203.516 161.300,203.597 162.891,203.696 162.891 C 203.796 162.891,204.748 162.547,205.813 162.128 C 211.547 159.867,217.548 159.678,223.564 161.566 C 227.691 162.862,227.720 162.841,227.728 158.557 C 227.737 154.420,226.097 153.392,218.540 152.798 L 215.249 152.539 220.294 145.245 C 226.696 135.990,226.625 136.132,226.482 132.896 L 226.367 130.273 215.908 130.169 C 207.335 130.084,205.412 130.162,205.244 130.601 M245.907 136.163 C 249.139 137.697,250.381 150.445,247.811 155.709 C 246.299 158.806,242.398 158.914,240.531 155.911 C 239.500 154.254,238.994 143.000,239.813 139.957 C 240.788 136.337,243.161 134.860,245.907 136.163 M108.080 150.370 C 107.685 155.480,106.209 157.737,103.025 158.096 C 100.487 158.382,99.161 157.134,98.920 154.232 C 98.561 149.902,101.355 147.445,106.796 147.305 L 108.319 147.266 108.080 150.370 M188.939 150.370 C 188.421 157.084,184.274 160.506,180.829 157.061 C 177.017 153.249,181.058 147.475,187.656 147.305 L 189.178 147.266 188.939 150.370 M267.969 182.395 C 261.141 183.797,253.772 193.923,256.105 198.698 C 257.664 201.890,261.580 202.273,266.772 199.742 C 277.011 194.751,278.006 180.333,267.969 182.395 M253.320 207.374 C 243.165 211.040,227.727 224.286,225.610 231.150 C 225.366 231.941,225.773 231.815,229.800 229.849 C 242.244 223.772,244.447 228.459,238.815 249.023 C 234.611 264.370,231.166 271.075,225.036 275.840 L 223.704 276.875 226.598 277.140 C 233.045 277.730,241.296 275.786,249.510 271.742 L 252.730 270.156 251.732 269.114 C 248.947 266.207,249.188 259.332,252.531 246.294 C 254.694 237.859,259.075 223.980,261.874 216.690 C 264.646 209.474,260.379 204.826,253.320 207.374 M121.044 223.804 C 109.009 226.152,104.928 244.263,114.382 253.371 C 121.036 259.780,135.790 256.848,137.832 248.710 C 138.461 246.205,138.330 246.094,134.753 246.094 C 131.748 246.094,131.644 246.125,131.085 247.208 C 128.283 252.625,120.636 252.500,117.935 246.993 C 116.710 244.494,116.574 237.216,117.699 234.302 C 119.852 228.722,127.760 227.433,130.040 232.291 C 130.325 232.900,130.689 233.662,130.848 233.984 C 131.061 234.417,131.956 234.600,134.258 234.683 C 138.207 234.825,138.552 234.520,137.639 231.696 C 135.723 225.761,128.534 222.343,121.044 223.804 M163.916 224.077 C 150.106 228.318,149.367 251.353,162.891 256.055 C 170.520 258.708,179.793 255.148,181.683 248.841 C 182.423 246.372,182.110 246.092,178.626 246.106 L 175.586 246.118 174.541 247.841 C 171.864 252.254,165.533 252.364,162.597 248.050 C 160.099 244.379,160.214 236.030,162.815 232.268 C 165.801 227.949,171.841 228.302,174.163 232.930 L 175.083 234.766 177.939 234.766 C 182.281 234.766,182.539 234.528,181.467 231.523 C 179.241 225.283,171.157 221.853,163.916 224.077 M98.530 225.063 C 97.968 225.626,97.825 254.514,98.380 255.389 C 98.609 255.750,99.583 255.862,101.792 255.779 L 104.883 255.664 104.883 240.234 L 104.883 224.805 101.948 224.692 C 100.001 224.618,98.851 224.743,98.530 225.063 M142.854 224.855 C 142.702 225.006,142.578 232.044,142.578 240.495 L 142.578 255.859 145.625 255.859 C 149.736 255.859,149.440 257.167,149.219 239.961 L 149.023 224.805 146.076 224.692 C 144.455 224.630,143.005 224.703,142.854 224.855 M186.897 225.099 C 186.794 225.368,186.755 232.355,186.812 240.626 L 186.914 255.664 190.234 255.664 L 193.555 255.664 193.657 240.456 C 193.737 228.548,193.652 225.179,193.266 224.934 C 192.435 224.407,187.110 224.544,186.897 225.099" id="path1"/><path fill-rule="evenodd" fill="#bc2521" stroke="none" d="M210.847 169.424 C 211.549 169.511,212.604 169.509,213.191 169.420 C 213.778 169.331,213.203 169.259,211.914 169.262 C 210.625 169.264,210.145 169.337,210.847 169.424 M268.093 172.279 C 256.976 174.274,244.604 181.885,232.791 193.996 C 227.915 198.995,221.875 206.160,221.875 206.946 C 221.875 207.172,221.729 207.415,221.551 207.487 C 221.373 207.559,220.058 209.990,218.629 212.891 C 207.453 235.580,213.195 259.023,231.351 264.828 C 232.222 265.106,232.714 265.468,232.560 265.717 C 232.413 265.956,232.483 266.024,232.725 265.874 C 233.753 265.239,237.885 252.963,239.778 244.922 C 243.885 227.473,241.500 224.142,229.282 230.264 C 226.927 231.444,225.000 232.306,225.000 232.179 C 225.000 225.525,248.620 206.641,256.942 206.641 C 262.663 206.641,264.231 210.708,261.411 218.232 C 258.028 227.258,253.000 243.962,251.332 251.716 C 250.347 256.295,249.572 265.939,250.265 264.990 C 250.441 264.748,252.321 263.838,254.442 262.967 C 279.351 252.735,297.656 225.898,297.656 199.612 C 297.656 180.658,285.261 169.198,268.093 172.279 M272.978 183.076 C 278.565 187.157,273.450 197.746,264.421 200.794 C 255.073 203.949,252.334 195.918,259.923 187.601 C 264.479 182.608,269.808 180.761,272.978 183.076 M228.872 271.334 C 227.941 272.540,226.400 274.122,225.448 274.849 C 224.495 275.577,223.898 276.172,224.120 276.172 C 224.776 276.172,228.214 272.902,229.614 270.947 C 231.422 268.423,230.913 268.688,228.872 271.334" id="path2"/><path fill-rule="evenodd" fill="#fa8b29" stroke="none" d="M209.864 165.821 C 207.153 166.573,205.104 167.652,203.906 168.957 L 202.930 170.022 204.688 169.791 C 209.210 169.195,213.551 169.122,215.421 169.610 C 218.415 170.391,218.460 170.904,216.224 178.687 C 214.098 186.086,214.138 186.464,216.754 183.678 C 221.594 178.522,224.265 168.416,221.359 166.250 C 219.933 165.187,213.074 164.931,209.864 165.821 M116.884 167.648 C 116.085 168.447,116.323 168.949,118.457 170.960 C 134.736 186.302,161.835 193.273,185.547 188.218 C 197.340 185.704,212.695 178.332,212.695 175.184 C 212.695 173.505,211.817 173.529,207.487 175.325 C 181.214 186.226,147.281 184.135,122.853 170.110 C 117.593 167.089,117.486 167.045,116.884 167.648 M218.452 212.012 C 202.554 238.093,201.096 263.656,214.960 273.205 C 218.135 275.391,224.912 277.610,224.023 276.172 C 223.806 275.821,224.319 275.612,225.098 275.735 C 225.259 275.760,225.354 275.649,225.309 275.488 C 225.198 275.087,228.631 271.690,229.033 271.803 C 229.210 271.853,229.255 271.732,229.132 271.534 C 229.010 271.335,229.392 270.644,229.982 269.996 C 230.572 269.349,231.108 268.584,231.174 268.297 C 231.239 268.009,231.544 267.580,231.851 267.344 C 232.158 267.108,232.295 266.800,232.155 266.661 C 232.015 266.521,232.077 266.406,232.292 266.406 C 233.289 266.406,232.531 265.204,231.283 264.805 C 213.295 259.063,207.434 235.212,218.555 213.011 C 219.879 210.367,220.920 208.203,220.868 208.203 C 220.816 208.203,219.729 209.917,218.452 212.012 M281.476 242.979 C 276.233 249.854,263.568 259.218,254.442 262.967 C 250.586 264.551,249.666 265.177,250.468 265.673 C 250.703 265.818,250.787 266.218,250.655 266.562 C 250.523 266.906,250.596 267.188,250.817 267.188 C 251.037 267.188,251.109 267.363,250.977 267.578 C 250.844 267.793,250.932 267.969,251.172 267.969 C 251.412 267.969,251.500 268.145,251.367 268.359 C 251.234 268.574,251.299 268.750,251.512 268.750 C 251.724 268.750,252.165 269.017,252.491 269.344 C 254.940 271.792,275.421 253.254,282.602 242.090 C 283.710 240.367,283.100 240.849,281.476 242.979" id="path3"/><path fill-rule="evenodd" fill="#97a0a7" stroke="none" d="M210.621 129.979 C 213.348 130.046,217.918 130.046,220.778 129.980 C 223.637 129.913,221.406 129.858,215.820 129.858 C 210.234 129.857,207.895 129.912,210.621 129.979 M123.935 134.766 C 123.935 135.732,124.011 136.128,124.104 135.645 C 124.197 135.161,124.197 134.370,124.104 133.887 C 124.011 133.403,123.935 133.799,123.935 134.766 M132.199 152.734 C 132.199 157.783,132.255 159.849,132.323 157.324 C 132.391 154.800,132.391 150.669,132.323 148.145 C 132.255 145.620,132.199 147.686,132.199 152.734 M270.872 153.320 C 270.872 158.691,270.927 160.943,270.995 158.324 C 271.062 155.704,271.062 151.310,270.995 148.558 C 270.928 145.806,270.873 147.949,270.872 153.320 M107.911 149.414 C 107.915 150.273,107.995 150.579,108.089 150.093 C 108.182 149.607,108.179 148.904,108.081 148.531 C 107.983 148.157,107.907 148.555,107.911 149.414 M188.770 149.414 C 188.775 150.273,188.855 150.579,188.948 150.093 C 189.042 149.607,189.038 148.904,188.940 148.531 C 188.842 148.157,188.766 148.555,188.770 149.414 M203.253 159.180 C 203.255 160.684,203.326 161.251,203.410 160.441 C 203.495 159.630,203.493 158.400,203.407 157.706 C 203.321 157.013,203.251 157.676,203.253 159.180 M142.365 240.234 C 142.365 248.506,142.417 251.890,142.480 247.754 C 142.543 243.618,142.543 236.851,142.480 232.715 C 142.417 228.579,142.365 231.963,142.365 240.234" id="path4"/><path fill-rule="evenodd" fill="#748489" stroke="none" d="M264.756 129.974 C 265.675 130.057,267.081 130.055,267.881 129.971 C 268.681 129.888,267.930 129.820,266.211 129.821 C 264.492 129.823,263.838 129.892,264.756 129.974 M107.843 141.280 C 107.826 141.748,107.505 142.211,107.129 142.309 C 106.488 142.476,106.489 142.490,107.141 142.533 C 107.899 142.582,108.396 141.729,108.075 140.931 C 107.965 140.655,107.860 140.812,107.843 141.280 M156.813 151.563 C 156.813 157.686,156.867 160.190,156.933 157.129 C 156.999 154.067,156.999 149.058,156.933 145.996 C 156.867 142.935,156.813 145.439,156.813 151.563 M279.077 151.758 C 279.077 157.559,279.131 159.986,279.198 157.152 C 279.265 154.318,279.265 149.572,279.198 146.605 C 279.132 143.638,279.077 145.957,279.077 151.758 M140.346 143.555 C 140.349 144.629,140.425 145.022,140.515 144.428 C 140.604 143.834,140.602 142.956,140.509 142.475 C 140.417 141.995,140.343 142.480,140.346 143.555 M140.351 147.656 C 140.351 148.838,140.425 149.321,140.514 148.730 C 140.604 148.140,140.604 147.173,140.514 146.582 C 140.425 145.991,140.351 146.475,140.351 147.656 M140.385 157.813 C 140.385 160.498,140.447 161.597,140.524 160.254 C 140.600 158.911,140.600 156.714,140.524 155.371 C 140.447 154.028,140.385 155.127,140.385 157.813 M227.851 158.594 C 227.851 159.775,227.925 160.259,228.014 159.668 C 228.104 159.077,228.104 158.110,228.014 157.520 C 227.925 156.929,227.851 157.412,227.851 158.594 M98.535 164.332 C 98.911 164.430,99.526 164.430,99.902 164.332 C 100.278 164.234,99.971 164.153,99.219 164.153 C 98.467 164.153,98.159 164.234,98.535 164.332 M105.255 240.820 C 105.255 248.984,105.307 252.380,105.370 248.366 C 105.434 244.351,105.434 237.672,105.371 233.522 C 105.307 229.372,105.255 232.656,105.255 240.820" id="path5"/><path fill-rule="evenodd" fill="#cad2d8" stroke="none" d="M126.066 129.969 C 126.759 130.056,127.989 130.057,128.800 129.973 C 129.610 129.888,129.043 129.817,127.539 129.816 C 126.035 129.814,125.372 129.883,126.066 129.969 M226.674 132.617 C 226.677 133.691,226.753 134.084,226.843 133.491 C 226.933 132.897,226.930 132.018,226.837 131.538 C 226.745 131.057,226.671 131.543,226.674 132.617 M208.317 136.618 C 209.776 136.694,212.061 136.693,213.395 136.617 C 214.729 136.541,213.535 136.479,210.742 136.480 C 207.949 136.481,206.858 136.543,208.317 136.618 M124.002 150.586 C 124.002 157.246,124.055 160.026,124.120 156.763 C 124.185 153.500,124.186 148.050,124.120 144.653 C 124.055 141.256,124.002 143.926,124.002 150.586 M248.953 146.875 C 248.953 148.271,249.024 148.843,249.111 148.145 C 249.197 147.446,249.197 146.304,249.111 145.605 C 249.024 144.907,248.953 145.479,248.953 146.875 M126.281 163.569 C 127.308 163.650,128.890 163.649,129.797 163.567 C 130.704 163.485,129.863 163.419,127.930 163.420 C 125.996 163.421,125.254 163.488,126.281 163.569 M142.881 163.568 C 143.800 163.650,145.206 163.649,146.006 163.565 C 146.806 163.481,146.055 163.414,144.336 163.415 C 142.617 163.417,141.963 163.485,142.881 163.568 M160.069 163.568 C 160.988 163.650,162.394 163.649,163.194 163.565 C 163.994 163.481,163.242 163.414,161.523 163.415 C 159.805 163.417,159.150 163.485,160.069 163.568 M149.396 240.039 C 149.396 248.203,149.448 251.598,149.511 247.584 C 149.575 243.570,149.575 236.890,149.511 232.741 C 149.448 228.591,149.396 231.875,149.396 240.039 M76.563 315.357 C 76.563 315.424,77.134 315.995,77.832 316.626 L 79.102 317.773 77.954 316.504 C 76.885 315.321,76.563 315.055,76.563 315.357" id="path6"/><path fill-rule="evenodd" fill="#e5a29d" stroke="none" d="" id="path7"/><path fill-rule="evenodd" fill="#f6c4ac" stroke="none" d="" id="path8"/></g></svg>