<svg id="svg" xmlns="http://www.w3.org/2000/svg" xmlns:xlink="http://www.w3.org/1999/xlink" width="400" height="400" viewBox="0, 0, 400,400"><g id="svgg"><path id="path0" d="M140.234 28.233 C 119.180 43.691,101.953 56.582,101.953 56.880 C 101.953 57.927,108.212 66.388,108.984 66.385 C 109.414 66.384,126.568 54.084,147.105 39.051 L 184.445 11.719 200.479 11.719 L 216.512 11.719 280.898 58.789 L 345.283 105.859 345.298 197.852 L 345.313 289.844 334.766 289.844 L 324.219 289.844 324.219 230.444 C 324.219 151.251,327.509 157.584,286.155 157.169 L 260.981 156.917 260.764 120.002 L 260.547 83.087 258.392 79.832 C 257.206 78.041,254.771 75.606,252.980 74.421 L 249.724 72.266 200.777 72.266 L 151.831 72.266 147.986 74.613 C 145.098 76.376,143.606 78.016,141.992 81.199 L 139.844 85.436 139.844 128.265 L 139.844 171.094 114.819 171.094 C 74.424 171.094,75.823 169.413,75.798 217.969 L 75.781 251.172 72.070 251.172 C 70.029 251.172,65.459 251.425,61.914 251.733 L 55.469 252.295 55.502 179.077 L 55.535 105.859 77.042 90.234 C 88.870 81.641,98.869 74.228,99.262 73.763 C 100.217 72.629,93.159 63.078,91.916 63.822 C 90.588 64.618,23.950 113.325,23.122 114.106 C 22.360 114.824,27.849 123.378,29.473 124.003 C 30.000 124.206,32.813 122.647,35.723 120.540 C 38.634 118.432,41.455 116.444,41.992 116.120 C 42.771 115.652,42.969 129.786,42.969 185.764 L 42.969 255.995 36.521 259.190 C 21.385 266.690,11.453 277.175,3.419 294.135 C 1.539 298.105,0.000 301.571,0.000 301.839 C 0.000 302.106,13.095 302.417,29.100 302.530 L 58.199 302.734 64.271 314.257 L 70.342 325.780 64.273 337.482 L 58.203 349.184 29.102 349.201 C 13.096 349.211,-0.000 349.352,-0.000 349.514 C -0.000 351.780,8.393 367.826,12.092 372.634 C 42.260 411.839,111.134 408.490,135.616 366.629 L 138.487 361.719 218.853 361.719 L 299.219 361.719 299.219 355.469 L 299.219 349.219 214.648 349.232 L 130.078 349.245 128.206 353.569 C 111.310 392.592,50.918 399.999,23.542 366.406 L 20.040 362.109 43.009 361.719 L 65.977 361.328 75.176 343.777 C 80.235 334.124,84.375 326.024,84.375 325.776 C 84.375 325.527,80.219 317.429,75.139 307.779 L 65.903 290.234 42.971 289.844 L 20.040 289.453 23.542 285.156 C 50.765 251.751,110.663 258.797,127.905 297.433 L 130.078 302.302 248.491 302.323 C 380.186 302.346,371.443 301.985,378.660 307.693 C 392.007 318.248,389.704 339.114,374.361 346.648 L 369.922 348.828 340.039 349.058 L 310.156 349.288 310.156 355.504 L 310.156 361.719 338.477 361.705 C 378.179 361.686,385.278 359.646,394.145 345.703 C 410.039 320.712,392.500 289.948,362.305 289.857 L 357.813 289.844 357.813 202.734 C 357.813 154.824,357.992 115.625,358.211 115.625 C 358.430 115.625,361.223 117.559,364.419 119.922 C 367.615 122.285,370.557 124.219,370.958 124.219 C 371.806 124.219,378.125 116.049,378.125 114.953 C 378.125 114.546,342.998 88.515,300.066 57.107 L 222.006 -0.000 200.261 0.064 L 178.516 0.128 140.234 28.233 M246.984 85.867 L 248.828 87.360 249.066 110.867 L 249.304 134.375 200.824 134.375 L 152.344 134.375 152.344 110.938 C 152.344 88.542,152.413 87.431,153.906 85.938 C 156.295 83.549,244.037 83.483,246.984 85.867 M163.281 110.938 L 163.281 122.656 169.531 122.656 L 175.781 122.656 175.781 110.938 L 175.781 99.219 169.531 99.219 L 163.281 99.219 163.281 110.938 M249.219 151.875 L 249.219 156.876 232.617 157.173 C 213.880 157.508,211.889 158.028,207.091 163.845 C 203.128 168.648,203.134 168.548,203.129 231.055 L 203.125 289.844 194.156 289.844 L 185.188 289.844 184.977 236.004 L 184.766 182.165 182.409 178.812 C 178.228 172.864,173.552 171.094,162.020 171.094 L 152.344 171.094 152.344 158.984 L 152.344 146.875 200.781 146.875 L 249.219 146.875 249.219 151.875 M309.660 171.150 L 311.719 172.770 311.719 231.307 L 311.719 289.844 263.672 289.844 L 215.625 289.844 215.625 231.980 C 215.625 171.727,215.628 171.675,218.996 170.318 C 223.178 168.633,307.444 169.407,309.660 171.150 M270.313 186.719 L 270.313 192.969 284.766 192.969 L 299.219 192.969 299.219 186.719 L 299.219 180.469 284.766 180.469 L 270.313 180.469 270.313 186.719 M171.094 185.156 C 172.552 186.615,172.656 187.760,172.656 202.344 L 172.656 217.969 130.469 217.969 L 88.281 217.969 88.281 202.589 C 88.281 187.874,88.355 187.132,89.980 185.402 L 91.679 183.594 130.605 183.594 C 168.490 183.594,169.573 183.636,171.094 185.156 M99.219 200.781 L 99.219 207.031 111.328 207.031 L 123.438 207.031 123.438 200.781 L 123.438 194.531 111.328 194.531 L 99.219 194.531 99.219 200.781 M138.281 200.781 L 138.281 207.031 150.391 207.031 L 162.500 207.031 162.500 200.781 L 162.500 194.531 150.391 194.531 L 138.281 194.531 138.281 200.781 M254.893 205.870 C 221.358 213.156,216.193 260.262,247.266 275.434 C 271.852 287.439,300.781 269.865,300.781 242.925 C 300.781 217.507,279.696 200.482,254.893 205.870 M274.509 219.839 C 292.858 228.816,292.923 255.105,274.618 264.116 C 257.914 272.340,239.063 260.436,239.063 241.663 C 239.063 223.886,258.420 211.967,274.509 219.839 M172.656 260.156 L 172.656 289.844 155.605 289.844 L 138.554 289.844 134.725 283.789 C 125.613 269.381,108.220 256.985,92.488 253.685 L 88.281 252.802 88.281 241.636 L 88.281 230.469 130.469 230.469 L 172.656 230.469 172.656 260.156 M183.594 325.781 L 183.594 332.031 189.844 332.031 L 196.094 332.031 196.094 325.781 L 196.094 319.531 189.844 319.531 L 183.594 319.531 183.594 325.781 M207.031 325.781 L 207.031 332.031 213.281 332.031 L 219.531 332.031 219.531 325.781 L 219.531 319.531 213.281 319.531 L 207.031 319.531 207.031 325.781 " stroke="none" fill="#000000" fill-rule="evenodd"></path></g></svg>