<svg xmlns="http://www.w3.org/2000/svg" xmlns:xlink="http://www.w3.org/1999/xlink" xml:space="preserve" version="1.1" style="shape-rendering:geometricPrecision;text-rendering:geometricPrecision;image-rendering:optimizeQuality;" viewBox="0 0 70555.54 88194.42499999999" x="0px" y="0px" fill-rule="evenodd" clip-rule="evenodd"><defs><style type="text/css">
   
    .fil0 {fill:black;fill-rule:nonzero}
   
  </style></defs><g><path class="fil0" d="M27975.11 22830.57c-4442.78,-836.6 -8551.26,1031.49 -10911.67,4820.38 -2411.07,3870.22 -2470.23,9026.25 -998.72,13280.71 1724.63,4986.3 5776.94,9574.36 11030.16,10816.44 4573.18,1081.41 8901.32,-678.99 11403.13,-4600.36 2471.72,-3874.24 2544.75,-9066.06 1066.89,-13367.83 -1773.26,-5161.63 -6068.09,-9909.62 -11589.79,-10949.34zm16277.68 14241.33c-130.02,-1196.52 -353.46,-2367.88 -678.52,-3526.95 340.05,-92.74 733.07,-108.28 1084.59,-152.12 317.58,1181.26 547.75,2387.59 683.49,3603.3 -352.78,43.99 -736.94,120.14 -1089.56,75.77zm-1007.35 -3398.79c304.2,1091.46 516.53,2192.96 644.13,3318.55 -1452.71,-461.76 -2158.88,-2530.81 -644.13,-3318.55zm-27730.15 -16570.37c-821.54,672.92 -1578.64,1424 -2263.1,2235.78 -1228.94,-1799.02 965.61,-3182.04 2263.1,-2235.78zm-2057.02 2537.44c703.34,-843.96 1484.33,-1620.08 2337.7,-2312.23 74.64,73.96 142.84,155.3 203.27,243.76l609.27 891.84c-859.34,706.3 -1639.39,1501.37 -2336.23,2368.17l-814.01 -1191.54zm21055.68 45446.57l-1228.46 76.24c-753.51,46.77 -682.81,1185.89 70.69,1139.12l1228.46 -76.24c753.51,-46.77 682.8,-1185.88 -70.69,-1139.12zm-14416.51 -3530.25l-941.07 -570.59c-577.23,-349.98 -1106.33,522.66 -529.1,872.63l941.08 570.59c577.23,349.97 1106.32,-522.66 529.09,-872.63zm6973.62 2894.94l-1188.9 -318.56c-729.23,-195.4 -1024.62,907.01 -295.39,1102.41l1188.9 318.56c729.22,195.4 1024.61,-907.01 295.39,-1102.41zm-4048.31 -28442.25c1.92,-231.21 -349.67,-234.14 -351.59,-2.9 -22.41,3304.39 2260.24,6922.1 5643.95,7559.24 227.64,43.2 293.39,-302.99 65.66,-346.2 -3215.92,-605.56 -5379.29,-4075.26 -5358.02,-7210.14zm-4706.99 -15046.58c-839.85,668.24 -1595.45,1437.21 -2257.6,2281.51 -168.67,-116.73 -317.67,-263.27 -436.56,-437.28l-251.76 -368.53c682.96,-878.58 1461.41,-1682.33 2325.13,-2384.41l620.79 908.71zm-1945.86 2454.3c631.22,-798.32 1348.55,-1526.8 2143.79,-2162.3 843.5,1346.26 -659.51,2804.36 -2143.79,2162.3zm29321.24 13535.72c-135.89,-1216.51 -364.37,-2421.12 -679.98,-3603.73l1170.11 -145.94c315.7,1182.76 550.07,2386.26 698.03,3601.48l-1188.16 148.19zm-28195.23 -17190.12c-864.73,699.93 -1645.28,1498.09 -2334,2371.43l-681.85 -998.09c690.82,-870.55 1470.6,-1672.89 2327.42,-2381.05l688.43 1007.71zm29733.02 16998.33c-148.19,-1214.43 -381.69,-2419.25 -695,-3601.86 369.17,-46.03 701.77,-112.7 1074.91,-46.5 304.48,1142.45 538.23,2303.56 696.85,3475.23 -316.05,111.44 -746.36,131.92 -1076.76,173.13zm1409.68 -334.89c-150.54,-1078.51 -363.86,-2148.31 -636.59,-3202.56 1259.25,395.5 1868.95,2404.36 636.59,3202.56zm-29580.5 -15624.18l-2478.57 -3628.11c-1769.63,-2610.63 -5762.74,-153 -4016.8,2403.12l2478.57 3628.11c1747.65,2558.15 5740.21,119.95 4016.8,-2403.12zm24420.8 12042.52c-3109.56,721.81 -1757.21,5313.5 1334.94,4927.93l3213.5 -400.77c3078.51,-383.59 2354.94,-4658.95 -404.8,-4983.82 -818.4,-96.34 -3316.8,264.84 -4143.64,456.66zm9133.4 21713.9c10207.55,-15787.7 1120.98,-40354.62 -16670.64,-46320.52 -303.67,-101.83 -560.78,-193.46 -856.89,-316.35 -376.14,-156.1 -755.6,-303.59 -1138.22,-442.06 -947.9,-343.04 -893.26,-310.16 73.43,-136.26 625.03,112.42 1253.83,251.41 1885.44,417.68 16900.7,4448.75 26514.12,25591.71 20220.29,41484.33 -1025.91,2590.54 -2440.79,4962.21 -4200.3,6963.04 -649.92,739.02 -507.1,585.16 -108.05,-123.95 278.88,-495.5 544.05,-1004.32 794.94,-1525.91zm-13150.93 -44467.62c14263.25,7263.65 21333.19,27325.45 14293.19,41727.37 281.55,-789.17 532.98,-1601.81 752.56,-2436.61 471.96,-1794.3 796.86,-3689.8 957.97,-5672.76 1035.94,-12750.58 -5133.52,-26577.3 -16058.41,-33528.01 -1007.12,-640.76 -1051.47,-653.27 54.69,-89.99zm11722.43 47416.51c2259.36,-2233.79 4040.58,-5029.3 5269.67,-8132.88 6371.39,-16088.43 -3354.02,-37450.95 -20458.43,-41953.31 -984.73,-259.21 -1962.57,-453.08 -2930.13,-584.21 -1547.06,-209.68 -1662.82,-218.78 46.84,-117.89 1538.61,90.88 3064.61,342.72 4554.85,735 17179.88,4522.23 26757.03,26475.16 19476.21,42328.25 -1418.36,3088.29 -3419.1,5804.24 -5918.18,7860.02 -751.32,618.03 -672.5,489.56 -40.83,-134.98zm1350.88 -556.57c2039.22,-1945.74 3699.74,-4347.06 4928.57,-7022.68 7371.76,-16051.07 -2316.61,-38236.2 -19707.03,-42813.83 -1147.2,-301.98 -2284.8,-514.41 -3407.28,-641.45 -1114.68,-126.15 -1245.27,-121.62 28.08,-78.23 1650.26,56.21 3340.27,302.29 5050.77,752.55 17381.93,4575.43 26910.21,27205.38 18767.65,42939.61 -1411.9,2728.29 -3302.75,5117.35 -5607.89,6945.68 -1062.96,843.12 -848.51,677.56 -52.87,-81.65zm-2510.43 2181.96c119.26,-63.38 237.72,-128.09 355.36,-194.09 295.45,-165.74 466.13,-220.89 783.04,-335.06 4127.27,-1486.85 7454.63,-4468.7 9782.38,-8260.52 9614.01,-15660.88 53.16,-39604.07 -17860.45,-44319.43 -2226.77,-586.15 -4418.15,-827.1 -6532.09,-754.28 -1870.61,64.44 -3678.71,373.58 -5395.51,905.67 -335.17,39.36 -668.06,86.65 -998.49,141.7 -327.36,54.54 -338.97,48.28 -666.39,-5.56 -352.73,-57.99 -704.14,-107.58 -1054.02,-148.88 -639.68,-75.49 -789.31,13.07 -130.66,-304.89 5148.34,-2485.67 10219.08,-3003.9 15775.89,-1541.19 14753.7,3883.58 24223.25,20030.4 22707.66,34836.61 -1052.69,10284.01 -7443.49,19498.66 -17938.23,21649.14 -622.69,127.6 -650.43,210.87 -233.71,-250.85 259.79,-287.86 513.6,-583.4 761.2,-886.39 284.36,-347.98 247.94,-321.48 644.02,-531.98zm4460.56 -3322.48c1624.68,-1624.86 2968.24,-3522.13 4024.13,-5562.47 8245.63,-15933.41 -1392.73,-38807.95 -18991.54,-43440.44 -886.02,-233.22 -1766.2,-412.5 -2637.98,-539.8 -1873.16,-273.52 -2508.54,-311.81 74.36,-132.45 1389.54,96.5 2805.09,328.68 4235.19,705.13 17463.29,4596.86 26938.29,27613.81 18154.08,43187.81 -1248.38,2213.33 -2854.88,4231.44 -4801.06,5865.76 -1091.55,916.66 -877.71,737.06 -57.18,-83.54zm2121.41 -1404.84c1159.53,-1257.05 2178.55,-2672.59 3043.12,-4205.43 8897.56,-15775 -685.05,-39044.17 -18370.75,-43699.55 -1950.32,-513.39 -3082.93,-750.74 56.47,-153.29 520.93,99.14 1044.55,217.67 1570.29,356.06 17459.51,4595.85 26806.33,28014.02 17438.81,43273.42 -1040.52,1694.96 -2286.45,3221.72 -3718.41,4514.7 -755.64,682.32 -593.41,536.24 -19.53,-85.91zm-8778.41 7293.08c11394.4,-1702.82 18533.78,-11445.41 19662.54,-22472.41 1550.86,-15150.73 -8137.81,-31617.33 -23227.81,-35589.44 -5839.67,-1537.17 -11891.77,-958.07 -17163.34,2057.79 -586.15,335.34 -432.05,318.33 -1107.23,312.47 -4916.61,-42.71 -9460.54,1562.98 -13195.32,4463.45 -6058.74,4705.3 -9169.11,12071.08 -9778.46,19571.12 -673.72,8292.43 1639.3,16567.41 5923.52,23242.64 4290.2,6684.54 10560.48,11770.34 17793.93,13672.96 6652.93,1749.93 13449.51,595.39 18950.99,-3677.13 513.36,-398.66 1011.23,-822.01 1492.71,-1268.76 316.75,-293.88 221.26,-248.87 648.47,-312.69zm-16259.4 -54225.7c15162.93,3988.34 24415.68,21163.23 23195.68,36179.46 -157.85,1942.77 -475.48,3797.22 -936.54,5550.11 -1510.29,5741.84 -4560.53,10405.07 -8574.15,13522.09 -5325.43,4135.8 -11899.9,5246.66 -18338.53,3553.06 -7055.78,-1855.9 -13181.07,-6830.81 -17380.45,-13373.86 -4205.36,-6552.35 -6476.04,-14671.94 -5815.23,-22805.6 593.43,-7303.94 3608,-14488.11 9510.69,-19072.21 5325.43,-4135.8 11899.91,-5246.66 18338.53,-3553.05zm-770.13 2561.52c-5952.95,-1595.08 -12068.69,-615.65 -17019.78,3192 -5431.85,4177.38 -8204.41,10732.2 -8740.2,17428.08 -592.42,7403.8 1494.48,14807.91 5347.43,20793.51 3859.53,5995.82 9492.96,10574.17 15985.47,12313.83 5952.94,1595.09 12068.69,615.65 17019.77,-3191.99 3672.49,-2824.34 6464.7,-7044.33 7857.91,-12243.88 437.16,-1631.51 736.63,-3363.82 882.3,-5184.22 1103,-13784.84 -7480.96,-29395.71 -21332.9,-33107.33zm-182.62 681.52c13520.42,3622.79 21890.3,18924.35 20814.52,32369.23 -141.56,1769.08 -434.45,3459.49 -862.82,5058.19 -1352.49,5047.55 -4055.09,9138.04 -7606.24,11869.06 -4780.07,3676.14 -10663.75,4606.88 -16407.31,3067.9 -6318.25,-1692.97 -11807.73,-6159.68 -15575.37,-12012.77 -3774.22,-5863.3 -5818.8,-13112.06 -5239.14,-20356.47 519.34,-6490.37 3203.11,-12877.45 8469.06,-16927.24 4780.07,-3676.13 10663.74,-4606.88 16407.3,-3067.9zm-13655.52 30617.05l4009.98 -1351.63c1044.37,2518.26 3111.36,4767.23 5760.89,5581.51l-226.36 5293.72c-4451.01,-1376.34 -7887.42,-5259.03 -9544.51,-9523.6zm3761.36 -2010.75l-4003.42 1349.42c-1322.17,-3846.24 -1361.74,-8396.69 603.17,-12043.38l3812.47 3330.24c-1217.39,2227.53 -1216.84,4999.21 -412.22,7363.72zm13892.83 -3891.25l4265.44 -1483.63c1357.38,3889.94 1402.45,8512.38 -616.06,12194.66l-4102.61 -3620.2c1150.82,-2150.48 1178.29,-4801.67 453.23,-7090.83zm4020.91 -2142.34l-4254.87 1479.94c-1076.46,-2759.82 -3380.8,-5239.2 -6332.18,-5926.21l192.2 -5236.72c4838.74,1090.78 8620.63,5177.48 10394.85,9682.99zm-17128.7 -1937.35l-3826.17 -3342.21c2141.09,-3437.08 5803.48,-5188.58 9860.49,-4538.53l-192.53 5245.91c-2361.03,-299.02 -4508.93,694.72 -5841.79,2634.83zm12285.59 11783.56l4107.54 3624.54c-2344.81,3701.55 -6395.43,5335.21 -10699.78,4289.01l227.01 -5308.84c2529.01,508.28 4921.66,-463.18 6365.23,-2604.71zm-6925.91 1732.12c-2403.4,-765.23 -4268.5,-2826.5 -5225.46,-5115.86 -986.04,-2358.94 -1122.98,-5139.64 83.54,-7395.75 1269.73,-2374.31 3671.18,-3458.83 6285.07,-2797.26 2680.76,678.3 4762.09,2984.31 5733.13,5507.73 853.1,2216.88 948.75,4968.92 -183.33,7101.58 -1351.38,2545.88 -4030.11,3547.26 -6692.95,2699.56z"/></g><text x="0" y="70570.54" fill="#000000" font-size="5px" font-weight="bold" font-family="'Helvetica Neue', Helvetica, Arial-Unicode, Arial, Sans-serif">Created by Oleksandr Panasovskyi</text><text x="0" y="70575.54" fill="#000000" font-size="5px" font-weight="bold" font-family="'Helvetica Neue', Helvetica, Arial-Unicode, Arial, Sans-serif">from the Noun Project</text></svg>