<svg id="svg" xmlns="http://www.w3.org/2000/svg" xmlns:xlink="http://www.w3.org/1999/xlink" width="400" height="400" viewBox="0, 0, 400,400"><g id="svgg"><path id="path0" d="M146.875 1.562 C 145.691 2.746,145.313 4.167,145.313 7.422 L 145.313 11.719 128.320 11.728 C 106.253 11.740,101.259 13.044,93.480 20.824 C 84.521 29.782,84.375 30.778,84.375 82.891 L 84.375 126.391 70.117 126.708 C 54.545 127.054,51.656 127.803,47.061 132.683 C 41.895 138.171,42.224 131.616,42.205 229.597 C 42.186 328.069,41.872 322.384,47.635 328.147 C 53.286 333.798,50.710 333.594,116.302 333.594 L 175.000 333.594 175.000 342.087 L 175.000 350.579 169.350 351.136 C 157.117 352.342,153.129 356.073,147.744 371.351 C 142.893 385.115,146.731 395.806,157.702 399.093 C 161.956 400.368,238.044 400.368,242.298 399.093 C 254.054 395.571,257.429 384.515,251.463 369.070 C 246.432 356.045,241.668 351.952,230.444 351.011 L 225.000 350.555 225.000 342.074 L 225.000 333.594 283.698 333.594 C 349.290 333.594,346.714 333.798,352.365 328.147 C 358.128 322.384,357.814 328.069,357.795 229.597 C 357.776 131.616,358.105 138.171,352.939 132.683 C 348.344 127.803,345.455 127.054,329.883 126.708 L 315.625 126.391 315.625 82.891 C 315.625 30.778,315.479 29.782,306.520 20.824 C 298.741 13.044,293.747 11.740,271.680 11.728 L 254.688 11.719 254.688 7.422 C 254.688 2.015,252.999 0.000,248.468 0.000 C 244.022 -0.000,242.188 2.210,242.188 7.569 L 242.188 11.719 224.219 11.719 L 206.250 11.719 206.250 7.422 C 206.250 2.002,204.564 0.000,200.000 -0.000 C 195.436 -0.000,193.750 2.002,193.750 7.422 L 193.750 11.719 175.781 11.719 L 157.813 11.719 157.813 7.569 C 157.813 0.653,151.339 -2.902,146.875 1.562 M145.313 28.850 C 145.313 32.922,145.561 33.676,147.371 35.100 C 152.454 39.098,157.813 35.737,157.813 28.551 L 157.813 24.219 175.781 24.219 L 193.750 24.219 193.750 28.551 C 193.750 33.764,196.011 36.719,200.000 36.719 C 203.989 36.719,206.250 33.764,206.250 28.551 L 206.250 24.219 224.219 24.219 L 242.188 24.219 242.188 28.551 C 242.188 35.737,247.546 39.098,252.629 35.100 C 254.439 33.676,254.688 32.922,254.688 28.850 L 254.688 24.219 268.555 24.223 C 297.595 24.233,302.322 27.703,302.336 49.023 L 302.344 60.156 200.000 60.156 L 97.656 60.156 97.656 49.314 C 97.656 27.533,101.670 24.493,130.664 24.311 L 145.313 24.219 145.313 28.850 M302.327 120.508 C 302.306 175.796,302.468 174.887,291.797 179.782 C 286.940 182.010,113.060 182.010,108.203 179.782 C 97.532 174.887,97.694 175.796,97.673 120.508 L 97.656 73.438 200.000 73.438 L 302.344 73.438 302.327 120.508 M160.441 85.289 C 156.323 87.283,155.087 114.841,158.917 119.292 L 160.802 121.484 175.781 121.484 L 190.760 121.484 192.646 119.292 C 194.483 117.157,194.531 116.750,194.531 103.509 C 194.531 89.010,194.069 86.690,190.893 85.242 C 188.456 84.132,162.748 84.171,160.441 85.289 M208.878 85.289 C 204.760 87.283,203.525 114.841,207.354 119.292 L 209.240 121.484 224.219 121.484 L 239.198 121.484 241.083 119.292 C 242.920 117.157,242.969 116.750,242.969 103.509 C 242.969 89.010,242.506 86.690,239.330 85.242 C 236.894 84.132,211.186 84.171,208.878 85.289 M256.141 86.707 L 253.809 89.039 254.053 103.484 C 254.380 122.835,252.977 121.484,272.746 121.484 L 287.635 121.484 289.521 119.292 C 291.358 117.157,291.406 116.750,291.406 103.509 C 291.406 83.725,292.060 84.375,272.169 84.375 L 258.474 84.375 256.141 86.707 M181.250 103.125 L 181.250 108.594 175.781 108.594 L 170.313 108.594 170.313 103.125 L 170.313 97.656 175.781 97.656 L 181.250 97.656 181.250 103.125 M229.688 103.125 L 229.688 108.594 224.219 108.594 L 218.750 108.594 218.750 103.125 L 218.750 97.656 224.219 97.656 L 229.688 97.656 229.688 103.125 M278.125 103.125 L 278.125 108.594 272.656 108.594 L 267.188 108.594 267.188 103.125 L 267.188 97.656 272.656 97.656 L 278.125 97.656 278.125 103.125 M112.003 133.726 C 109.067 135.148,108.594 137.690,108.594 152.050 L 108.594 165.745 110.877 168.029 L 113.161 170.313 127.240 170.313 C 140.993 170.313,141.370 170.269,143.511 168.429 L 145.703 166.545 145.947 152.011 L 146.191 137.477 143.859 135.145 L 141.526 132.813 127.599 132.865 C 119.721 132.895,112.947 133.269,112.003 133.726 M184.525 134.046 C 183.556 134.724,180.823 139.149,178.450 143.880 L 174.137 152.481 170.305 148.897 C 164.132 143.123,157.457 144.465,157.457 151.481 C 157.457 158.046,173.158 171.589,178.300 169.459 C 180.733 168.451,194.531 142.567,194.531 139.011 C 194.531 134.717,188.113 131.532,184.525 134.046 M232.962 134.046 C 231.994 134.724,229.260 139.149,226.888 143.880 L 222.574 152.481 218.743 148.897 C 213.524 144.015,208.981 143.911,206.548 148.616 C 203.318 154.862,220.026 172.165,226.800 169.589 C 229.035 168.740,242.969 142.387,242.969 139.011 C 242.969 134.717,236.551 131.532,232.962 134.046 M281.400 134.046 C 280.431 134.724,277.698 139.149,275.325 143.880 L 271.012 152.481 267.180 148.897 C 261.770 143.836,256.627 143.991,254.787 149.269 C 252.531 155.741,268.872 172.010,275.209 169.600 C 277.279 168.813,291.406 142.558,291.406 139.498 C 291.406 134.400,285.493 131.178,281.400 134.046 M84.541 155.273 C 85.028 179.696,91.595 189.910,109.218 193.652 C 115.061 194.893,284.939 194.893,290.782 193.652 C 308.716 189.843,315.625 178.636,315.625 153.351 L 315.625 139.844 328.429 139.844 C 339.871 139.844,341.429 140.003,343.078 141.337 L 344.922 142.830 345.130 210.478 L 345.338 278.125 200.013 278.125 L 54.688 278.125 54.688 211.680 C 54.688 141.904,54.697 141.692,57.991 140.367 C 58.538 140.147,64.665 139.939,71.609 139.905 L 84.234 139.844 84.541 155.273 M132.813 151.563 L 132.813 157.031 127.344 157.031 L 121.875 157.031 121.875 151.563 L 121.875 146.094 127.344 146.094 L 132.813 146.094 132.813 151.563 M74.780 213.287 L 72.656 214.957 72.656 236.328 L 72.656 257.699 74.715 259.318 C 77.850 261.785,98.717 261.759,103.122 259.283 C 108.136 256.465,109.606 252.776,109.094 244.290 C 108.577 235.693,108.577 237.197,109.085 228.125 C 109.543 219.935,108.587 217.402,103.657 213.744 C 100.193 211.174,77.914 210.821,74.780 213.287 M122.657 212.596 C 115.835 215.316,114.844 218.335,114.844 236.378 C 114.844 258.805,116.448 260.938,133.322 260.938 C 150.363 260.938,151.562 259.331,151.563 236.500 C 151.563 217.875,151.121 216.244,145.265 213.257 C 141.895 211.538,126.444 211.086,122.657 212.596 M164.359 212.810 C 163.018 213.411,160.908 215.229,159.671 216.851 L 157.422 219.800 157.422 236.405 C 157.422 259.066,158.337 260.370,174.542 260.803 C 185.732 261.103,188.446 260.321,191.889 255.810 L 194.141 252.860 194.374 237.563 C 194.632 220.577,193.899 217.431,188.813 213.718 C 185.967 211.640,168.423 210.988,164.359 212.810 M202.058 213.338 L 200.000 214.957 200.000 236.249 C 200.000 257.494,200.004 257.544,201.808 259.239 C 205.753 262.944,212.500 260.020,212.500 254.604 L 212.500 252.106 217.130 256.522 C 222.493 261.637,225.316 262.255,228.551 259.020 C 232.413 255.158,231.442 252.465,223.099 243.897 L 215.730 236.328 223.099 228.820 C 231.454 220.309,232.450 217.535,228.551 213.636 C 225.316 210.401,222.493 211.019,217.130 216.135 L 212.500 220.550 212.500 218.052 C 212.500 212.707,206.376 209.942,202.058 213.338 M237.855 213.636 L 235.938 215.554 235.938 236.328 L 235.938 257.102 237.855 259.020 C 240.487 261.652,244.409 261.609,246.934 258.921 L 248.828 256.905 248.828 236.198 L 248.828 215.490 246.636 213.604 C 243.772 211.140,240.339 211.153,237.855 213.636 M257.316 212.632 C 254.231 214.126,253.906 216.390,253.906 236.416 C 253.906 258.877,254.450 260.850,260.656 260.913 C 265.005 260.957,266.619 258.823,267.129 252.353 L 267.578 246.661 270.313 252.332 C 274.463 260.940,278.981 263.278,283.239 259.020 L 285.156 257.102 285.156 236.328 L 285.156 215.554 283.239 213.636 C 278.170 208.568,272.666 212.366,272.633 220.955 L 272.611 226.953 269.126 220.313 C 264.594 211.674,262.332 210.203,257.316 212.632 M298.438 212.596 C 291.617 215.316,290.625 218.335,290.625 236.378 C 290.625 258.751,292.255 260.938,308.927 260.938 C 324.587 260.938,327.344 258.276,327.344 243.158 C 327.344 231.054,326.850 230.278,318.871 229.827 C 309.037 229.271,304.238 238.765,312.601 242.229 C 314.445 242.993,314.844 243.628,314.844 245.798 L 314.844 248.438 308.984 248.438 L 303.125 248.438 303.125 236.328 L 303.125 224.219 313.672 224.219 C 325.914 224.219,327.344 223.571,327.344 218.025 C 327.344 212.511,325.353 211.710,311.809 211.768 C 305.529 211.796,299.512 212.168,298.438 212.596 M96.875 226.953 L 96.875 229.688 91.016 229.688 L 85.156 229.688 85.156 226.953 L 85.156 224.219 91.016 224.219 L 96.875 224.219 96.875 226.953 M139.063 236.328 L 139.063 248.438 133.203 248.438 L 127.344 248.438 127.344 236.328 L 127.344 224.219 133.203 224.219 L 139.063 224.219 139.063 236.328 M181.250 236.328 L 181.250 248.438 175.781 248.438 L 170.313 248.438 170.313 236.328 L 170.313 224.219 175.781 224.219 L 181.250 224.219 181.250 236.328 M96.875 245.703 L 96.875 248.438 91.016 248.438 L 85.156 248.438 85.156 245.703 L 85.156 242.969 91.016 242.969 L 96.875 242.969 96.875 245.703 M345.313 303.966 L 345.313 316.526 343.029 318.810 L 340.745 321.094 200.000 321.094 L 59.255 321.094 56.971 318.810 L 54.688 316.526 54.688 303.966 L 54.688 291.406 200.000 291.406 L 345.313 291.406 345.313 303.966 M272.656 306.250 L 272.656 312.500 278.906 312.500 L 285.156 312.500 285.156 306.250 L 285.156 300.000 278.906 300.000 L 272.656 300.000 272.656 306.250 M296.875 306.250 L 296.875 312.500 303.125 312.500 L 309.375 312.500 309.375 306.250 L 309.375 300.000 303.125 300.000 L 296.875 300.000 296.875 306.250 M321.094 306.250 L 321.094 312.500 327.344 312.500 L 333.594 312.500 333.594 306.250 L 333.594 300.000 327.344 300.000 L 321.094 300.000 321.094 306.250 M211.719 348.438 L 211.719 363.281 200.000 363.281 L 188.281 363.281 188.281 348.438 L 188.281 333.594 200.000 333.594 L 211.719 333.594 211.719 348.438 M175.000 366.680 C 175.000 375.518,175.723 375.781,200.000 375.781 C 224.277 375.781,225.000 375.518,225.000 366.680 C 225.000 361.992,234.648 363.271,237.010 368.272 C 246.369 388.091,247.505 387.500,200.068 387.500 C 152.721 387.500,153.635 387.974,162.978 368.286 C 165.356 363.274,175.000 361.986,175.000 366.680 " stroke="none" fill="#000000" fill-rule="evenodd"></path></g></svg>