<svg xmlns="http://www.w3.org/2000/svg"  viewBox="0 0 48 48" width="192px" height="192px" baseProfile="basic"><path fill="#6be3a2" d="M47,17H27.294c-0.376,0-0.721,0.211-0.892,0.546l-3.063,6.017c-0.157,0.31-0.143,0.68,0.039,0.977	s0.505,0.477,0.853,0.477h0.001l5.522-0.005l-4.844,9.535c-0.157,0.31-0.143,0.68,0.039,0.976S25.453,36,25.801,36h7.07	l6.201-11.996L44.001,24C44.379,24,47,17,47,17z"/><path fill="#fca66c" d="M27.063,17H9.648c-0.376,0-0.721,0.211-0.892,0.546l-3.036,5.968	c-0.007,0.012-0.017,0.021-0.023,0.033l-5.59,11c-0.157,0.31-0.143,0.68,0.039,0.976S0.652,36,1,36h6.87l2.661-6h7.818l3.143-5.996	L24.002,24C24.377,24,27.063,17,27.063,17z"/><path fill="#324561" d="M39.001,19c-0.323,0-0.641-0.156-0.833-0.445c-0.417-0.625-1.976-0.864-3.565,0.173	c-0.461,0.301-1.082,0.171-1.384-0.292c-0.302-0.462-0.171-1.082,0.292-1.384c2.327-1.517,5.164-1.342,6.321,0.394	c0.307,0.459,0.183,1.08-0.277,1.387C39.385,18.946,39.191,19,39.001,19z"/><path fill="#324561" d="M45.001,12.5c-0.37,0-0.726-0.206-0.899-0.561c-0.894-1.828-5.652-2.67-9.725-1.013	c-0.508,0.208-1.096-0.037-1.303-0.549c-0.209-0.511,0.037-1.095,0.549-1.303C37.98,7.3,44.294,7.78,45.898,11.061	c0.242,0.496,0.037,1.095-0.459,1.338C45.298,12.467,45.148,12.5,45.001,12.5z"/><path fill="#324561" d="M24,25H14c-0.553,0-1-0.448-1-1s0.447-1,1-1h9.388l2.785-5.455c0.251-0.492,0.855-0.686,1.346-0.436	c0.491,0.251,0.687,0.854,0.436,1.345l-3.063,6C24.72,24.79,24.376,25,24,25z"/><path fill="#324561" d="M32.87,36c-0.152,0-0.307-0.035-0.452-0.108c-0.492-0.25-0.688-0.852-0.438-1.345l5.589-11	C37.739,23.211,38.084,23,38.46,23h4.922l2.724-5.447c0.248-0.494,0.848-0.695,1.342-0.447c0.494,0.247,0.694,0.848,0.447,1.342	l-3,6C44.725,24.786,44.379,25,44,25h-4.927l-5.311,10.453C33.586,35.8,33.234,36,32.87,36z"/><path fill="#324561" d="M42.501,15.466c-0.298,0-0.593-0.133-0.79-0.386c-0.804-1.032-3.779-1.645-6.805-0.3	c-0.504,0.227-1.096-0.002-1.32-0.507c-0.224-0.504,0.003-1.096,0.508-1.32c3.479-1.548,7.606-1.146,9.195,0.899	c0.339,0.436,0.261,1.064-0.175,1.403C42.932,15.397,42.715,15.466,42.501,15.466z"/><path fill="#324561" d="M7.869,36c-0.152,0-0.307-0.035-0.452-0.108c-0.492-0.25-0.688-0.852-0.438-1.345l2.54-5	C9.689,29.211,10.033,29,10.41,29h6.819l2.758-5.452c0.25-0.491,0.851-0.69,1.344-0.44c0.493,0.249,0.69,0.851,0.441,1.344l-3.036,6	C18.565,30.788,18.221,31,17.844,31h-6.82l-2.262,4.453C8.585,35.8,8.233,36,7.869,36z"/></svg>