<svg id="svg" version="1.1" xmlns="http://www.w3.org/2000/svg" xmlns:xlink="http://www.w3.org/1999/xlink" width="400" height="400" viewBox="0, 0, 400,400"><g id="svgg"><path id="path0" d="M208.008 100.269 C 177.840 103.143,153.440 124.281,148.800 151.563 C 148.059 155.917,148.039 158.091,148.139 222.656 L 148.242 289.258 149.122 291.148 C 150.851 294.863,156.961 299.453,158.334 298.069 C 158.681 297.719,158.637 297.668,158.145 297.855 C 156.401 298.519,151.198 294.412,149.525 291.049 C 148.191 288.371,147.919 255.736,149.188 250.718 C 153.066 235.382,167.406 222.265,187.500 215.671 C 191.133 214.479,197.574 212.916,198.922 212.899 C 199.555 212.891,199.608 214.041,199.707 229.980 L 199.813 247.070 199.907 229.800 L 200.000 212.530 222.559 212.411 C 249.656 212.268,249.766 212.244,253.333 205.803 L 254.492 203.711 254.612 192.221 L 254.732 180.731 253.523 178.277 C 250.191 171.507,250.086 171.484,222.558 171.484 L 199.943 171.484 200.072 163.379 L 200.200 155.273 201.440 152.642 C 206.628 141.634,213.221 138.672,232.526 138.672 C 246.421 138.672,247.061 138.548,250.393 135.216 C 254.217 131.392,254.491 130.267,254.492 118.359 C 254.492 105.978,253.744 103.804,248.571 101.162 L 246.680 100.195 228.125 100.158 C 217.920 100.137,208.867 100.188,208.008 100.269 M227.366 234.381 C 224.768 235.586,222.621 237.535,221.094 240.076 L 219.727 242.352 219.617 264.979 C 219.494 290.178,219.500 290.247,222.098 293.786 C 225.158 297.957,227.741 298.828,237.048 298.828 C 247.132 298.828,250.305 297.552,253.428 292.240 L 254.492 290.430 254.604 266.682 L 254.716 242.935 253.670 240.604 C 252.486 237.965,250.389 235.864,247.704 234.627 C 244.939 233.352,229.975 233.171,227.366 234.381 " stroke="none" fill="#043245" fill-rule="evenodd"></path><path id="path1" d="M0.000 200.000 L 0.000 400.000 200.000 400.000 L 400.000 400.000 400.000 200.000 L 400.000 0.000 200.000 0.000 L 0.000 0.000 0.000 200.000 M247.877 100.738 C 250.176 101.782,252.242 103.743,253.443 106.020 L 254.492 108.008 254.492 118.359 L 254.492 128.711 253.273 131.285 C 250.073 138.036,248.975 138.427,232.422 138.695 C 215.323 138.972,211.852 139.931,206.024 145.985 C 201.222 150.974,200.000 154.694,200.000 164.329 L 200.000 171.484 222.949 171.488 L 245.898 171.492 247.852 172.406 C 253.781 175.179,254.668 177.674,254.679 191.602 L 254.687 202.930 253.576 205.273 C 252.317 207.930,249.991 210.232,247.313 211.470 C 245.544 212.288,245.050 212.307,222.761 212.417 L 200.015 212.530 199.910 250.894 L 199.805 289.258 198.770 291.464 C 195.566 298.298,194.535 298.610,174.680 298.747 L 158.148 298.860 155.930 297.848 C 153.229 296.616,150.679 294.219,149.284 291.602 L 148.242 289.648 148.242 221.289 L 148.242 152.930 149.358 148.242 C 155.421 122.759,177.911 103.925,206.445 100.433 C 212.471 99.696,246.128 99.944,247.877 100.738 M247.940 234.712 C 250.314 235.785,252.871 238.389,253.953 240.834 C 254.680 242.479,254.706 243.512,254.601 266.489 L 254.492 290.430 253.332 292.525 C 250.437 297.750,247.262 298.930,236.551 298.758 C 227.586 298.615,225.767 298.098,222.842 294.860 C 219.591 291.261,219.740 292.578,219.617 266.467 L 219.507 243.286 220.439 241.272 C 221.676 238.598,223.931 236.199,226.563 234.757 L 228.711 233.579 237.305 233.684 C 245.381 233.783,246.021 233.845,247.940 234.712 " stroke="none" fill="#fbfbfb" fill-rule="evenodd"></path><path id="path2" d="M199.708 248.633 C 199.712 249.492,199.792 249.798,199.886 249.312 C 199.979 248.826,199.976 248.123,199.878 247.749 C 199.780 247.376,199.704 247.773,199.708 248.633 M198.918 253.978 C 195.969 274.159,182.099 290.588,162.793 296.770 C 160.269 297.578,158.203 298.328,158.203 298.436 C 158.203 298.544,165.410 298.633,174.219 298.633 C 183.027 298.633,190.234 298.482,190.234 298.298 C 190.234 298.114,190.498 298.064,190.820 298.188 C 191.143 298.312,191.406 298.224,191.406 297.993 C 191.406 297.762,191.670 297.674,191.992 297.798 C 192.314 297.921,192.578 297.842,192.578 297.621 C 192.578 297.400,192.735 297.317,192.928 297.436 C 193.120 297.555,193.383 297.378,193.511 297.043 C 193.639 296.709,193.878 296.491,194.040 296.559 C 194.203 296.628,195.127 295.900,196.094 294.941 C 197.061 293.982,197.588 293.335,197.266 293.503 C 196.943 293.672,197.068 293.466,197.542 293.047 C 198.016 292.628,198.295 292.175,198.160 292.041 C 198.026 291.907,198.132 291.797,198.395 291.797 C 198.659 291.797,198.766 291.621,198.633 291.406 C 198.500 291.191,198.572 291.016,198.793 291.016 C 199.014 291.016,199.093 290.752,198.969 290.430 C 198.846 290.107,198.923 289.844,199.140 289.844 C 199.358 289.844,199.440 289.474,199.321 289.023 C 199.203 288.571,199.264 288.087,199.456 287.948 C 199.657 287.802,199.722 279.838,199.609 269.141 C 199.431 252.169,199.372 250.875,198.918 253.978 " stroke="none" fill="#fb9d14" fill-rule="evenodd"></path><path id="path3" d="M194.531 213.703 C 171.519 218.878,153.526 233.566,149.188 250.718 C 148.276 254.326,148.251 291.723,149.162 290.812 C 149.415 290.559,150.718 293.120,150.512 293.467 C 150.413 293.633,150.488 293.721,150.679 293.662 C 151.225 293.493,153.496 295.806,153.235 296.266 C 153.105 296.494,153.137 296.556,153.305 296.404 C 153.473 296.253,154.469 296.564,155.518 297.095 C 156.813 297.752,157.769 297.987,158.498 297.830 C 159.088 297.702,159.790 297.582,160.059 297.562 C 160.327 297.542,160.547 297.417,160.547 297.284 C 160.547 297.151,160.854 297.019,161.230 296.991 C 161.932 296.938,163.477 296.591,163.477 296.485 C 163.477 296.453,163.845 296.357,164.296 296.272 C 164.747 296.186,165.978 295.730,167.031 295.258 C 168.084 294.786,169.033 294.368,169.141 294.328 C 171.153 293.592,171.875 293.217,171.875 292.907 C 171.875 292.701,172.051 292.641,172.266 292.773 C 172.480 292.906,172.656 292.829,172.656 292.601 C 172.656 292.374,172.923 292.188,173.250 292.188 C 174.050 292.188,176.953 290.328,176.953 289.816 C 176.953 289.591,177.130 289.516,177.347 289.650 C 177.563 289.784,177.845 289.619,177.973 289.285 C 178.102 288.950,178.323 288.748,178.466 288.836 C 178.934 289.126,186.328 281.745,186.328 280.988 C 186.328 280.806,186.697 280.426,187.147 280.145 C 187.598 279.864,187.869 279.536,187.750 279.417 C 187.631 279.297,187.921 278.876,188.396 278.480 C 188.870 278.084,189.107 277.755,188.922 277.747 C 188.737 277.740,188.953 277.427,189.403 277.051 C 190.485 276.146,194.141 269.994,194.141 269.078 C 194.141 268.683,194.324 268.359,194.548 268.359 C 194.773 268.359,194.910 268.140,194.853 267.871 C 194.797 267.603,195.073 266.899,195.468 266.308 C 195.862 265.716,196.226 264.712,196.276 264.075 C 196.326 263.438,196.535 262.691,196.741 262.415 C 196.947 262.140,197.086 261.523,197.049 261.045 C 197.011 260.542,197.150 260.280,197.381 260.423 C 197.627 260.575,197.695 260.346,197.559 259.826 C 197.424 259.309,197.492 259.078,197.735 259.228 C 197.980 259.380,198.034 259.170,197.878 258.676 C 197.738 258.237,197.792 257.775,197.996 257.649 C 198.201 257.522,198.321 257.112,198.263 256.737 C 198.205 256.362,198.318 255.951,198.514 255.823 C 198.710 255.696,198.886 254.509,198.905 253.186 C 198.923 251.864,199.071 250.781,199.233 250.781 C 199.395 250.781,199.554 242.256,199.587 231.836 L 199.647 212.891 198.749 212.924 C 198.255 212.942,196.357 213.292,194.531 213.703 " stroke="none" fill="#05af4e" fill-rule="evenodd"></path><path id="path4" d="M199.790 268.750 C 199.790 279.170,199.840 283.433,199.902 278.223 C 199.964 273.013,199.964 264.487,199.902 259.277 C 199.840 254.067,199.790 258.330,199.790 268.750 M195.483 295.410 L 194.336 296.680 195.605 295.532 C 196.789 294.463,197.055 294.141,196.753 294.141 C 196.686 294.141,196.114 294.712,195.483 295.410 M166.309 298.730 C 170.659 298.793,177.778 298.793,182.129 298.730 C 186.479 298.667,182.920 298.616,174.219 298.616 C 165.518 298.616,161.958 298.667,166.309 298.730 " stroke="none" fill="#f94204" fill-rule="evenodd"></path><path id="path5" d="" stroke="none" fill="#a6a4a1" fill-rule="evenodd"></path><path id="path6" d="" stroke="none" fill="#e0dccc" fill-rule="evenodd"></path><path id="path7" d="" stroke="none" fill="#bcbcb4" fill-rule="evenodd"></path><path id="path8" d="" stroke="none" fill="#d0d8dc" fill-rule="evenodd"></path></g></svg>