<svg id="svg" version="1.1" xmlns="http://www.w3.org/2000/svg" xmlns:xlink="http://www.w3.org/1999/xlink" width="400" height="400" viewBox="0, 0, 400,400"><g id="svgg"><path id="path0" d="M17.526 13.354 L 14.613 13.461 14.439 14.725 C 14.251 16.097,14.193 386.666,14.380 386.854 C 14.443 386.917,97.653 386.937,199.291 386.899 L 384.088 386.830 384.088 200.137 L 384.088 13.443 205.693 13.442 C 107.575 13.441,25.754 13.397,23.868 13.344 C 21.982 13.290,19.128 13.295,17.526 13.354 M357.424 177.915 C 357.471 253.512,357.425 325.394,357.322 337.655 L 357.135 359.946 198.938 359.877 L 40.741 359.808 40.671 200.412 C 40.632 112.743,40.659 40.861,40.731 40.672 C 40.835 40.398,72.652 40.343,199.100 40.398 L 357.339 40.466 357.424 177.915 M76.886 76.195 L 75.720 76.300 75.720 106.966 L 75.720 137.632 114.037 137.815 C 135.112 137.915,190.544 137.997,237.220 137.997 L 322.085 137.997 322.085 106.996 L 322.085 75.995 200.069 76.042 C 132.960 76.069,77.527 76.138,76.886 76.195 M97.643 168.932 L 76.082 169.002 75.902 176.202 C 75.803 180.162,75.721 194.204,75.721 207.407 L 75.720 231.413 152.493 231.343 L 229.267 231.274 229.448 222.839 C 229.680 211.991,229.682 182.030,229.451 174.598 L 229.272 168.861 174.238 168.861 C 143.970 168.861,109.502 168.893,97.643 168.932 M81.463 262.587 C 79.718 262.683,77.792 262.845,77.183 262.948 L 76.076 263.135 75.900 266.204 C 75.802 267.892,75.722 281.630,75.721 296.733 L 75.720 324.193 80.453 324.373 C 83.056 324.472,96.873 324.553,111.159 324.553 L 137.133 324.554 137.225 293.759 C 137.275 276.821,137.232 262.855,137.128 262.722 C 136.912 262.446,86.301 262.323,81.463 262.587 " stroke="none" fill="#fbfbfb" fill-rule="evenodd"></path><path id="path1" d="M0.000 200.000 L 0.000 400.000 200.000 400.000 L 400.000 400.000 400.000 200.000 L 400.000 0.000 200.000 0.000 L 0.000 0.000 0.000 200.000 M365.775 13.351 L 384.088 13.533 384.088 200.319 L 384.088 387.106 199.222 387.106 L 14.357 387.106 14.174 362.780 C 13.939 331.475,13.935 19.268,14.169 15.969 L 14.346 13.471 15.335 13.366 C 17.104 13.178,346.919 13.164,365.775 13.351 M40.878 200.093 L 40.878 359.582 108.902 359.777 C 146.315 359.884,217.488 359.884,267.064 359.777 L 357.202 359.582 357.202 200.093 L 357.202 40.604 199.040 40.604 L 40.878 40.604 40.878 200.093 M322.222 106.859 L 322.222 137.860 199.131 137.860 C 131.431 137.860,75.973 137.793,75.890 137.710 C 75.808 137.628,75.726 123.739,75.709 106.846 L 75.678 76.132 79.471 75.983 C 81.558 75.900,137.030 75.839,202.743 75.845 L 322.222 75.857 322.222 106.859 M229.630 200.000 L 229.630 231.276 223.388 231.302 C 219.955 231.316,185.326 231.351,146.433 231.379 L 75.720 231.429 75.720 200.220 L 75.720 169.010 81.139 168.930 C 84.119 168.885,118.748 168.821,158.093 168.787 L 229.630 168.724 229.630 200.000 M134.774 262.457 L 137.449 262.634 137.445 292.977 C 137.443 309.665,137.370 323.586,137.283 323.911 L 137.124 324.502 119.248 324.596 C 109.416 324.649,95.569 324.649,88.477 324.596 L 75.583 324.501 75.670 293.869 C 75.718 277.022,75.843 263.149,75.949 263.041 C 76.567 262.407,126.523 261.911,134.774 262.457 " stroke="none" fill="#9c1c24" fill-rule="evenodd"></path><path id="path2" d="M102.126 13.374 C 143.282 13.413,210.628 13.413,251.783 13.374 C 292.939 13.336,259.266 13.305,176.955 13.305 C 94.643 13.305,60.971 13.336,102.126 13.374 M353.841 40.530 C 354.482 40.588,355.532 40.588,356.173 40.530 C 356.814 40.472,356.289 40.425,355.007 40.425 C 353.724 40.425,353.200 40.472,353.841 40.530 M14.125 92.181 C 14.125 111.269,14.158 119.078,14.197 109.534 C 14.237 99.990,14.237 84.372,14.197 74.829 C 14.158 65.285,14.125 73.093,14.125 92.181 M138.615 75.926 C 166.794 75.964,212.905 75.964,241.084 75.926 C 269.263 75.887,246.207 75.856,189.849 75.856 C 133.491 75.856,110.436 75.887,138.615 75.926 M106.516 137.925 C 107.233 137.981,108.405 137.981,109.122 137.925 C 109.839 137.868,109.252 137.822,107.819 137.822 C 106.385 137.822,105.799 137.868,106.516 137.925 M101.989 168.925 C 102.630 168.983,103.680 168.983,104.321 168.925 C 104.962 168.867,104.438 168.820,103.155 168.820 C 101.872 168.820,101.348 168.867,101.989 168.925 M176.886 168.930 C 181.903 168.972,190.113 168.972,195.130 168.930 C 200.147 168.888,196.043 168.854,186.008 168.854 C 175.974 168.854,171.869 168.888,176.886 168.930 M357.335 211.523 C 357.335 230.309,357.367 237.994,357.407 228.601 C 357.447 219.208,357.447 203.837,357.407 194.444 C 357.367 185.051,357.335 192.737,357.335 211.523 M229.424 227.023 C 229.428 227.627,229.484 227.841,229.549 227.500 C 229.615 227.159,229.612 226.665,229.544 226.403 C 229.475 226.141,229.421 226.420,229.424 227.023 M91.022 231.477 C 91.668 231.535,92.655 231.534,93.217 231.475 C 93.779 231.416,93.251 231.369,92.044 231.370 C 90.837 231.371,90.377 231.419,91.022 231.477 M97.188 262.481 C 98.357 262.532,100.271 262.532,101.440 262.481 C 102.610 262.430,101.653 262.388,99.314 262.388 C 96.975 262.388,96.019 262.430,97.188 262.481 M40.736 310.974 C 40.736 327.723,40.769 334.534,40.809 326.111 C 40.850 317.687,40.850 303.983,40.809 295.658 C 40.769 287.333,40.736 294.225,40.736 310.974 M137.249 314.678 C 137.249 315.357,137.302 315.634,137.368 315.295 C 137.433 314.955,137.433 314.400,137.368 314.060 C 137.302 313.721,137.249 313.999,137.249 314.678 M14.100 325.789 C 14.100 327.901,14.144 328.729,14.196 327.629 C 14.248 326.528,14.248 324.800,14.195 323.788 C 14.142 322.776,14.100 323.676,14.100 325.789 M44.804 359.876 C 47.039 359.922,50.619 359.922,52.760 359.876 C 54.901 359.830,53.073 359.792,48.697 359.792 C 44.321 359.792,42.569 359.830,44.804 359.876 M46.571 387.035 C 47.816 387.086,49.853 387.086,51.097 387.035 C 52.342 386.985,51.324 386.943,48.834 386.943 C 46.344 386.943,45.326 386.985,46.571 387.035 M281.023 387.037 C 292.918 387.077,312.300 387.077,324.096 387.037 C 335.891 386.997,326.159 386.965,302.469 386.965 C 278.779 386.965,269.128 386.997,281.023 387.037 " stroke="none" fill="#cc8c94" fill-rule="evenodd"></path><path id="path3" d="M16.529 13.358 C 16.794 13.427,17.226 13.427,17.490 13.358 C 17.754 13.289,17.538 13.232,17.010 13.232 C 16.481 13.232,16.265 13.289,16.529 13.358 M334.793 13.374 C 339.444 13.417,346.975 13.417,351.529 13.374 C 356.082 13.332,352.277 13.298,343.073 13.298 C 333.868 13.298,330.143 13.332,334.793 13.374 M40.740 160.631 C 40.740 226.722,40.771 253.718,40.809 220.622 C 40.848 187.527,40.848 133.453,40.809 100.458 C 40.771 67.462,40.740 94.540,40.740 160.631 M84.156 75.921 C 84.798 75.979,85.847 75.979,86.488 75.921 C 87.130 75.863,86.605 75.816,85.322 75.816 C 84.040 75.816,83.515 75.863,84.156 75.921 M307.063 75.925 L 322.083 75.999 322.154 106.792 L 322.226 137.586 322.224 106.722 L 322.222 75.857 307.133 75.854 L 292.044 75.850 307.063 75.925 M75.521 77.366 C 75.521 78.045,75.574 78.323,75.639 77.984 C 75.705 77.644,75.705 77.088,75.639 76.749 C 75.574 76.409,75.521 76.687,75.521 77.366 M92.524 137.928 C 94.901 137.974,98.789 137.974,101.166 137.928 C 103.543 137.882,101.598 137.845,96.845 137.845 C 92.092 137.845,90.147 137.882,92.524 137.928 M90.071 168.929 C 92.155 168.976,95.488 168.976,97.479 168.929 C 99.469 168.882,97.764 168.844,93.690 168.844 C 89.616 168.845,87.987 168.883,90.071 168.929 M75.812 170.919 C 75.812 172.051,75.861 172.514,75.920 171.948 C 75.979 171.382,75.979 170.456,75.920 169.890 C 75.861 169.324,75.812 169.787,75.812 170.919 M229.443 229.630 C 229.443 230.610,229.493 231.012,229.554 230.521 C 229.615 230.031,229.615 229.228,229.554 228.738 C 229.493 228.248,229.443 228.649,229.443 229.630 M98.697 231.481 C 101.300 231.526,105.559 231.526,108.162 231.481 C 110.765 231.436,108.635 231.399,103.429 231.399 C 98.224 231.399,96.094 231.436,98.697 231.481 M194.837 231.481 C 198.862 231.524,205.529 231.524,209.651 231.481 C 213.774 231.439,210.480 231.404,202.332 231.404 C 194.184 231.404,190.811 231.439,194.837 231.481 M130.933 262.477 C 131.499 262.536,132.425 262.536,132.990 262.477 C 133.556 262.418,133.093 262.369,131.962 262.369 C 130.830 262.369,130.367 262.418,130.933 262.477 M137.284 319.753 C 137.284 322.016,137.327 322.906,137.378 321.730 C 137.430 320.553,137.430 318.701,137.378 317.614 C 137.326 316.527,137.284 317.490,137.284 319.753 M75.543 321.674 C 75.542 323.032,75.589 323.622,75.646 322.985 C 75.704 322.348,75.705 321.237,75.648 320.516 C 75.591 319.795,75.544 320.316,75.543 321.674 M99.931 324.758 C 100.950 324.810,102.617 324.810,103.635 324.758 C 104.654 324.705,103.820 324.662,101.783 324.662 C 99.746 324.662,98.913 324.705,99.931 324.758 M14.118 342.112 C 14.118 349.129,14.154 351.999,14.197 348.491 C 14.241 344.983,14.241 339.242,14.197 335.734 C 14.154 332.226,14.118 335.096,14.118 342.112 M73.298 359.876 C 82.604 359.917,97.913 359.917,107.318 359.877 C 116.722 359.836,109.108 359.804,90.398 359.804 C 71.687 359.804,63.992 359.836,73.298 359.876 M274.302 359.877 C 289.592 359.916,314.530 359.916,329.720 359.877 C 344.910 359.837,332.401 359.805,301.920 359.805 C 271.440 359.805,259.012 359.837,274.302 359.877 M104.733 387.037 C 133.138 387.076,179.619 387.076,208.025 387.037 C 236.430 386.999,213.189 386.967,156.379 386.967 C 99.568 386.967,76.327 386.999,104.733 387.037 M355.096 387.037 C 360.501 387.079,369.266 387.079,374.574 387.037 C 379.882 386.995,375.460 386.961,364.746 386.961 C 354.033 386.961,349.690 386.995,355.096 387.037 " stroke="none" fill="#c17278" fill-rule="evenodd"></path><path id="path4" d="M18.865 13.363 C 19.206 13.428,19.700 13.426,19.962 13.357 C 20.224 13.289,19.945 13.235,19.342 13.238 C 18.738 13.241,18.523 13.297,18.865 13.363 M25.587 13.366 C 26.004 13.429,26.621 13.427,26.959 13.362 C 27.296 13.297,26.955 13.245,26.200 13.247 C 25.446 13.249,25.170 13.303,25.587 13.366 M14.122 38.272 C 14.122 48.985,14.156 53.408,14.197 48.100 C 14.239 42.792,14.239 34.026,14.197 28.621 C 14.156 23.216,14.122 27.558,14.122 38.272 M118.884 40.535 C 161.863 40.573,232.110 40.573,274.988 40.535 C 317.867 40.497,282.702 40.465,196.845 40.465 C 110.988 40.465,75.905 40.497,118.884 40.535 M357.337 109.053 C 357.337 146.776,357.369 162.168,357.407 143.256 C 357.446 124.345,357.446 93.481,357.407 74.669 C 357.368 55.858,357.337 71.331,357.337 109.053 M76.200 76.188 C 76.540 76.254,77.095 76.254,77.435 76.188 C 77.774 76.123,77.497 76.069,76.818 76.069 C 76.139 76.069,75.861 76.123,76.200 76.188 M14.127 224.417 C 14.127 278.210,14.159 300.216,14.198 273.320 C 14.236 246.423,14.236 202.411,14.198 175.514 C 14.159 148.618,14.127 170.624,14.127 224.417 M114.335 137.928 C 116.636 137.974,120.401 137.974,122.702 137.928 C 125.003 137.882,123.121 137.845,118.519 137.845 C 113.916 137.845,112.034 137.882,114.335 137.928 M108.711 168.929 C 110.634 168.976,113.783 168.976,115.706 168.929 C 117.630 168.882,116.056 168.844,112.209 168.844 C 108.361 168.844,106.787 168.882,108.711 168.929 M142.730 168.930 C 147.370 168.972,154.962 168.972,159.602 168.930 C 164.242 168.888,160.446 168.853,151.166 168.853 C 141.886 168.853,138.090 168.888,142.730 168.930 M207.217 168.929 C 208.999 168.977,211.838 168.977,213.527 168.929 C 215.216 168.881,213.759 168.842,210.288 168.842 C 206.818 168.842,205.436 168.881,207.217 168.929 M229.464 172.702 C 229.464 174.815,229.507 175.643,229.559 174.542 C 229.611 173.442,229.611 171.713,229.558 170.701 C 229.506 169.689,229.463 170.590,229.464 172.702 M75.816 176.406 C 75.816 177.689,75.863 178.213,75.921 177.572 C 75.979 176.931,75.979 175.881,75.921 175.240 C 75.863 174.599,75.816 175.123,75.816 176.406 M229.459 223.045 C 229.459 224.781,229.504 225.490,229.558 224.623 C 229.612 223.755,229.612 222.335,229.558 221.468 C 229.504 220.600,229.459 221.310,229.459 223.045 M79.339 231.481 C 81.254 231.528,84.464 231.528,86.472 231.481 C 88.480 231.434,86.914 231.395,82.990 231.395 C 79.067 231.395,77.424 231.434,79.339 231.481 M357.336 291.632 C 357.336 317.058,357.368 327.459,357.407 314.746 C 357.447 302.034,357.447 281.231,357.407 268.519 C 357.368 255.806,357.336 266.207,357.336 291.632 M92.250 262.477 C 92.816 262.536,93.741 262.536,94.307 262.477 C 94.873 262.418,94.410 262.369,93.278 262.369 C 92.147 262.369,91.684 262.418,92.250 262.477 M105.418 262.481 C 106.588 262.532,108.501 262.532,109.671 262.481 C 110.840 262.430,109.883 262.388,107.545 262.388 C 105.206 262.388,104.249 262.430,105.418 262.481 M125.865 262.478 C 126.510 262.536,127.498 262.535,128.059 262.477 C 128.621 262.418,128.093 262.370,126.886 262.371 C 125.679 262.372,125.219 262.420,125.865 262.478 M75.814 265.158 C 75.815 266.365,75.863 266.825,75.921 266.179 C 75.979 265.534,75.979 264.546,75.920 263.985 C 75.861 263.423,75.813 263.951,75.814 265.158 M137.305 290.947 C 137.305 303.471,137.339 308.634,137.380 302.421 C 137.421 296.208,137.421 285.961,137.380 279.650 C 137.339 273.339,137.305 278.422,137.305 290.947 M77.308 324.483 C 78.257 324.537,79.739 324.537,80.601 324.482 C 81.462 324.428,80.686 324.384,78.875 324.385 C 77.064 324.385,76.359 324.430,77.308 324.483 M40.727 350.480 C 40.727 355.610,40.764 357.670,40.809 355.058 C 40.854 352.445,40.854 348.248,40.809 345.730 C 40.764 343.212,40.727 345.350,40.727 350.480 M22.154 387.037 C 26.265 387.080,32.994 387.080,37.106 387.037 C 41.217 386.994,37.853 386.959,29.630 386.959 C 21.406 386.959,18.042 386.994,22.154 387.037 " stroke="none" fill="#cc9494" fill-rule="evenodd"></path></g></svg>