<svg id="svg" version="1.1" xmlns="http://www.w3.org/2000/svg" xmlns:xlink="http://www.w3.org/1999/xlink" width="400" height="727.7777777777777" viewBox="0, 0, 400,727.7777777777777"><g id="svgg"><path id="path0" d="M242.003 192.500 C 242.005 342.533,242.053 469.064,242.128 518.800 C 242.133 522.136,241.998 524.013,241.393 529.000 C 240.811 533.806,239.763 538.611,237.991 544.600 C 237.535 546.140,237.113 547.670,237.053 548.000 C 236.889 548.899,235.823 551.586,233.957 555.800 C 233.470 556.900,233.052 557.890,233.030 558.000 C 233.007 558.110,232.845 558.425,232.670 558.700 C 232.496 558.975,232.488 559.200,232.653 559.200 C 232.818 559.200,232.604 559.464,232.176 559.787 C 231.749 560.110,231.547 560.380,231.727 560.387 C 231.907 560.394,231.688 560.915,231.239 561.545 C 230.791 562.175,230.552 562.818,230.708 562.975 C 230.865 563.132,230.680 563.435,230.297 563.650 C 229.914 563.864,229.600 564.262,229.600 564.533 C 229.600 565.009,227.619 568.346,226.124 570.389 C 225.726 570.933,225.130 571.929,224.800 572.602 C 224.470 573.274,223.621 574.425,222.914 575.158 C 222.206 575.891,221.403 576.997,221.129 577.616 C 220.855 578.236,220.488 578.655,220.315 578.548 C 220.142 578.440,220.000 578.526,220.000 578.738 C 220.000 578.950,219.472 579.725,218.828 580.461 C 218.183 581.198,217.106 582.430,216.434 583.200 C 215.762 583.970,215.210 584.735,215.206 584.900 C 215.203 585.065,214.930 585.200,214.600 585.200 C 214.270 585.200,214.000 585.367,214.000 585.570 C 214.000 586.027,210.107 590.000,209.659 590.000 C 209.481 590.000,209.094 590.450,208.800 591.000 C 208.506 591.550,208.064 592.000,207.818 592.000 C 207.572 592.000,206.513 592.810,205.465 593.800 C 204.417 594.790,203.380 595.600,203.162 595.600 C 202.943 595.600,202.330 596.005,201.801 596.500 C 200.138 598.055,199.692 598.359,199.443 598.109 C 199.309 597.976,199.200 598.069,199.200 598.316 C 199.200 598.564,198.390 599.241,197.400 599.821 C 196.410 600.401,195.600 601.050,195.600 601.262 C 195.600 601.474,195.425 601.539,195.211 601.407 C 194.997 601.274,194.507 601.534,194.122 601.983 C 193.737 602.432,193.102 602.800,192.711 602.800 C 192.320 602.800,192.000 602.991,192.000 603.224 C 192.000 603.457,191.839 603.548,191.642 603.426 C 191.445 603.304,191.173 603.492,191.039 603.844 C 190.904 604.195,190.540 604.386,190.230 604.267 C 189.920 604.148,189.557 604.335,189.424 604.683 C 189.290 605.030,189.076 605.209,188.947 605.080 C 188.818 604.951,188.012 605.287,187.157 605.827 C 186.302 606.367,184.746 607.098,183.701 607.452 C 182.655 607.805,181.710 608.227,181.600 608.389 C 181.411 608.668,178.429 609.756,178.000 609.703 C 177.890 609.690,177.440 609.880,177.000 610.125 C 176.560 610.371,176.110 610.594,176.000 610.620 C 175.890 610.647,175.499 610.802,175.131 610.965 C 174.763 611.128,174.133 611.324,173.731 611.400 C 173.329 611.476,172.955 611.575,172.900 611.619 C 172.845 611.664,172.635 611.723,172.433 611.750 C 172.232 611.778,171.932 611.935,171.767 612.100 C 171.602 612.265,171.092 612.401,170.633 612.402 C 170.175 612.404,169.320 612.656,168.733 612.962 C 168.146 613.268,166.886 613.640,165.933 613.787 C 164.980 613.935,163.619 614.236,162.909 614.456 C 161.645 614.848,159.812 615.202,158.180 615.370 C 157.729 615.416,157.189 615.547,156.980 615.661 C 156.771 615.774,155.701 615.914,154.603 615.970 C 153.505 616.026,152.489 616.145,152.345 616.234 C 150.861 617.151,134.755 617.003,128.000 616.010 C 126.790 615.833,125.485 615.747,125.100 615.821 C 124.715 615.894,124.400 615.774,124.400 615.553 C 124.400 615.333,124.248 615.247,124.062 615.361 C 123.877 615.476,123.112 615.420,122.362 615.237 C 121.613 615.053,119.740 614.677,118.200 614.400 C 116.660 614.122,115.175 613.717,114.900 613.499 C 114.625 613.281,114.400 613.216,114.400 613.356 C 114.400 613.496,113.763 613.345,112.985 613.020 C 112.207 612.694,111.680 612.606,111.815 612.824 C 111.949 613.042,111.415 612.858,110.627 612.415 C 109.839 611.972,109.105 611.608,108.997 611.605 C 108.768 611.599,108.365 611.540,107.800 611.430 C 107.580 611.387,106.690 611.030,105.822 610.638 C 104.954 610.245,103.964 609.868,103.622 609.800 C 102.241 609.525,101.791 609.391,101.600 609.200 C 101.212 608.812,99.606 608.000,99.226 608.000 C 99.015 608.000,97.183 607.099,95.157 605.998 C 93.130 604.896,91.391 604.076,91.293 604.174 C 91.195 604.272,90.909 604.179,90.657 603.967 C 90.406 603.756,88.670 602.603,86.800 601.405 C 84.930 600.208,82.980 598.862,82.466 598.414 C 81.952 597.966,81.277 597.600,80.966 597.600 C 80.655 597.600,80.400 597.420,80.400 597.200 C 80.400 596.980,80.130 596.800,79.800 596.800 C 79.470 596.800,79.200 596.533,79.200 596.208 C 79.200 595.882,78.750 595.502,78.200 595.364 C 77.650 595.226,77.200 594.970,77.200 594.796 C 77.200 594.621,76.615 594.104,75.900 593.646 C 75.185 593.188,74.761 592.810,74.958 592.807 C 75.154 592.803,74.524 592.183,73.558 591.429 C 72.591 590.675,70.746 588.965,69.458 587.629 C 68.170 586.293,66.955 585.200,66.758 585.200 C 66.561 585.200,66.400 585.058,66.400 584.883 C 66.400 584.709,65.795 583.925,65.055 583.141 C 64.315 582.357,62.985 580.744,62.099 579.557 C 61.213 578.371,60.119 577.014,59.668 576.543 C 59.217 576.071,58.957 575.576,59.091 575.443 C 59.224 575.309,59.023 575.200,58.643 575.200 C 58.263 575.200,58.051 575.041,58.171 574.848 C 58.290 574.654,57.864 573.895,57.224 573.161 C 56.583 572.428,56.128 571.717,56.211 571.582 C 56.294 571.448,55.831 570.755,55.181 570.044 C 54.532 569.333,54.000 568.502,54.000 568.199 C 54.000 567.895,53.855 567.558,53.678 567.448 C 53.501 567.339,52.837 566.203,52.204 564.924 C 51.571 563.646,50.682 562.060,50.228 561.400 C 49.774 560.740,49.472 560.200,49.556 560.200 C 49.640 560.200,49.136 558.974,48.435 557.476 C 46.866 554.119,44.800 548.796,44.800 548.109 C 44.800 547.829,44.650 547.600,44.467 547.600 C 44.283 547.600,44.117 547.375,44.096 547.100 C 44.025 546.129,43.558 544.268,43.227 543.638 C 43.043 543.287,42.766 542.236,42.612 541.302 C 42.457 540.368,42.163 539.501,41.959 539.374 C 41.754 539.248,41.669 539.012,41.769 538.851 C 41.868 538.689,41.761 537.757,41.529 536.778 C 41.297 535.800,41.109 534.730,41.110 534.400 C 41.111 534.070,40.961 533.080,40.778 532.200 C 39.850 527.750,39.840 527.649,39.451 518.600 C 39.236 513.609,39.405 513.478,40.225 518.000 C 40.365 518.770,40.592 519.580,40.729 519.800 C 40.866 520.020,40.993 520.380,41.011 520.600 C 41.092 521.622,41.822 523.575,42.805 525.400 C 43.397 526.500,43.906 527.536,43.936 527.703 C 44.087 528.556,46.067 532.000,46.407 532.000 C 46.623 532.000,46.800 532.187,46.800 532.416 C 46.800 533.063,48.412 535.203,50.500 537.330 C 51.545 538.395,52.400 539.461,52.400 539.699 C 52.400 539.938,52.496 540.037,52.614 539.919 C 52.732 539.802,53.378 540.219,54.051 540.847 C 55.224 541.943,60.264 545.600,60.601 545.600 C 60.691 545.600,61.428 546.050,62.238 546.600 C 63.049 547.150,64.147 547.600,64.679 547.600 C 65.297 547.600,65.546 547.764,65.368 548.052 C 65.197 548.329,65.304 548.426,65.644 548.302 C 65.950 548.191,66.740 548.422,67.400 548.815 C 68.737 549.611,72.158 550.640,74.600 550.981 C 75.480 551.104,76.740 551.318,77.400 551.457 C 79.266 551.850,86.819 551.874,88.600 551.491 C 89.480 551.303,90.830 551.082,91.600 551.000 C 93.999 550.745,96.961 549.981,97.886 549.378 C 98.373 549.060,99.034 548.800,99.355 548.800 C 100.226 548.800,108.535 544.389,109.200 543.573 C 109.310 543.438,110.159 542.783,111.087 542.117 C 112.014 541.451,112.659 540.792,112.520 540.653 C 112.381 540.514,112.461 540.400,112.698 540.400 C 113.341 540.400,117.135 536.457,118.451 534.422 C 119.083 533.444,119.608 532.814,119.618 533.022 C 119.627 533.230,120.012 532.680,120.473 531.800 C 120.933 530.920,121.420 530.110,121.555 530.000 C 122.088 529.565,124.174 524.824,124.064 524.300 C 124.029 524.135,124.159 524.000,124.353 524.000 C 124.548 524.000,124.803 523.685,124.921 523.300 C 125.039 522.915,125.639 520.980,126.255 519.000 L 127.374 515.400 127.498 448.500 L 127.622 381.600 63.801 381.600 L -0.020 381.600 0.115 455.300 C 0.189 495.835,0.393 529.810,0.568 530.800 C 0.743 531.790,0.912 533.095,0.943 533.700 C 0.974 534.305,1.110 534.800,1.245 534.800 C 1.379 534.800,1.414 535.205,1.323 535.700 C 1.232 536.195,1.445 537.860,1.797 539.400 C 2.148 540.940,2.521 542.988,2.626 543.951 C 2.731 544.914,2.939 545.901,3.089 546.144 C 3.239 546.387,3.396 546.859,3.437 547.193 C 3.586 548.404,4.044 550.669,4.814 554.000 C 5.883 558.624,5.914 558.736,6.252 559.285 C 6.416 559.549,6.597 560.204,6.654 560.739 C 6.711 561.274,6.886 562.002,7.044 562.356 C 7.202 562.710,7.369 563.135,7.415 563.300 C 7.462 563.465,7.536 563.645,7.581 563.700 C 7.625 563.755,7.717 564.070,7.784 564.400 C 8.132 566.093,9.765 571.027,10.038 571.209 C 10.210 571.323,10.443 571.924,10.555 572.543 C 10.668 573.163,10.955 573.905,11.194 574.193 C 11.433 574.480,11.584 574.870,11.529 575.058 C 11.475 575.246,11.642 575.781,11.901 576.247 C 12.160 576.713,12.258 577.208,12.119 577.347 C 11.980 577.486,12.077 577.600,12.333 577.600 C 12.590 577.600,12.771 577.735,12.736 577.900 C 12.669 578.219,12.863 578.757,14.054 581.551 C 14.464 582.514,14.800 583.549,14.800 583.851 C 14.800 584.153,14.938 584.400,15.106 584.400 C 15.436 584.400,16.781 587.289,16.829 588.103 C 16.845 588.376,17.198 589.140,17.614 589.800 C 18.029 590.460,18.758 591.855,19.234 592.900 C 19.709 593.945,20.264 594.800,20.467 594.800 C 20.669 594.800,20.799 595.025,20.754 595.300 C 20.648 595.959,21.231 597.326,21.771 597.685 C 22.007 597.842,22.213 598.112,22.229 598.285 C 22.291 598.975,23.350 600.800,23.688 600.800 C 23.885 600.800,23.949 600.960,23.828 601.155 C 23.707 601.350,23.877 601.732,24.204 602.004 C 24.532 602.276,24.800 602.668,24.800 602.876 C 24.800 603.083,25.295 603.907,25.900 604.707 C 26.505 605.506,26.772 606.021,26.493 605.852 C 26.046 605.580,27.381 607.869,28.354 609.040 C 28.555 609.282,29.663 610.992,30.817 612.840 C 31.971 614.688,33.043 616.290,33.198 616.400 C 33.353 616.510,33.960 617.365,34.545 618.300 C 35.131 619.235,35.798 620.000,36.029 620.000 C 36.259 620.000,36.336 620.180,36.200 620.400 C 36.064 620.620,36.138 620.800,36.364 620.800 C 36.590 620.800,37.005 621.232,37.287 621.759 C 37.569 622.286,38.374 623.411,39.075 624.259 C 39.776 625.107,41.727 627.480,43.411 629.533 C 47.464 634.475,55.382 642.713,60.585 647.400 C 62.050 648.720,63.764 650.295,64.394 650.900 C 65.023 651.505,65.723 652.000,65.949 652.000 C 66.175 652.000,66.504 652.228,66.680 652.506 C 66.856 652.784,67.990 653.819,69.200 654.806 C 70.410 655.793,71.749 656.915,72.175 657.300 C 72.602 657.685,73.105 658.000,73.292 658.000 C 73.480 658.000,73.851 658.186,74.117 658.412 C 74.383 658.639,75.217 659.359,75.972 660.012 C 76.727 660.666,77.567 661.200,77.839 661.200 C 78.111 661.200,78.393 661.335,78.467 661.500 C 78.727 662.087,81.505 663.961,81.751 663.716 C 81.888 663.579,82.000 663.653,82.000 663.880 C 82.000 664.418,84.479 666.119,89.066 668.727 C 91.986 670.388,92.050 670.426,95.200 672.332 C 98.361 674.246,108.911 679.600,109.520 679.600 C 109.761 679.600,110.804 680.050,111.838 680.600 C 112.873 681.150,114.042 681.600,114.436 681.600 C 114.830 681.600,115.248 681.753,115.363 681.941 C 115.479 682.128,116.435 682.593,117.487 682.974 C 118.539 683.355,119.670 683.771,120.000 683.899 C 120.330 684.027,120.690 684.162,120.800 684.200 C 120.910 684.238,121.360 684.417,121.800 684.598 C 124.619 685.756,126.400 686.355,126.400 686.145 C 126.400 686.011,126.625 686.081,126.900 686.299 C 127.456 686.740,130.264 687.711,131.207 687.788 C 131.541 687.816,131.991 687.945,132.207 688.076 C 132.618 688.325,138.417 689.903,139.800 690.142 C 140.240 690.218,140.870 690.383,141.200 690.510 C 142.909 691.164,144.878 691.656,145.059 691.474 C 145.173 691.361,145.836 691.505,146.533 691.795 C 147.230 692.085,148.880 692.459,150.200 692.627 C 151.520 692.795,152.870 692.968,153.200 693.011 C 153.530 693.054,154.070 693.186,154.400 693.305 C 154.730 693.423,156.530 693.723,158.400 693.971 C 160.270 694.220,162.430 694.509,163.200 694.615 C 170.205 695.577,171.764 695.665,183.800 695.790 C 194.275 695.899,200.461 695.609,208.800 694.621 C 209.790 694.504,211.410 694.333,212.400 694.241 C 214.264 694.069,215.084 693.933,219.800 693.014 C 221.340 692.714,223.320 692.332,224.200 692.165 C 225.080 691.998,225.890 691.838,226.000 691.808 C 226.211 691.752,228.056 691.313,229.400 691.000 C 235.802 689.509,241.349 687.992,241.598 687.666 C 241.709 687.520,242.242 687.351,242.783 687.290 C 243.323 687.230,243.863 687.050,243.983 686.890 C 244.102 686.731,244.650 686.536,245.200 686.459 C 245.750 686.381,246.310 686.141,246.445 685.925 C 246.579 685.708,246.849 685.558,247.045 685.590 C 247.701 685.699,251.971 684.370,252.211 683.983 C 252.341 683.772,252.784 683.600,253.195 683.600 C 253.606 683.600,254.181 683.375,254.471 683.100 C 254.762 682.825,255.360 682.538,255.800 682.462 C 256.240 682.386,257.320 682.002,258.200 681.609 C 259.080 681.217,260.212 680.770,260.715 680.616 C 261.218 680.462,262.388 679.903,263.315 679.373 C 264.242 678.843,265.315 678.407,265.700 678.405 C 266.085 678.402,266.400 678.259,266.400 678.088 C 266.400 677.723,268.933 676.579,270.024 676.450 C 270.257 676.423,270.337 676.222,270.203 676.005 C 270.063 675.778,270.223 675.711,270.576 675.846 C 270.939 675.985,271.294 675.820,271.439 675.444 C 271.573 675.092,271.872 674.921,272.103 675.063 C 272.333 675.206,272.764 674.990,273.061 674.585 C 273.357 674.179,273.600 673.969,273.600 674.119 C 273.600 674.417,276.651 672.824,279.844 670.858 C 280.969 670.166,282.017 669.600,282.174 669.600 C 282.331 669.600,283.841 668.654,285.530 667.499 C 287.218 666.343,289.089 665.146,289.686 664.838 C 290.284 664.531,290.661 664.099,290.525 663.878 C 290.388 663.657,290.462 663.591,290.688 663.731 C 290.915 663.871,291.874 663.404,292.820 662.693 C 293.767 661.982,295.274 660.882,296.170 660.249 C 297.067 659.616,297.860 658.940,297.934 658.746 C 298.008 658.553,298.233 658.497,298.434 658.621 C 298.635 658.745,298.800 658.687,298.800 658.491 C 298.800 658.296,299.587 657.571,300.549 656.880 C 302.135 655.741,306.743 651.943,309.800 649.255 C 310.460 648.675,311.983 647.336,313.185 646.280 C 314.387 645.224,315.669 643.904,316.035 643.347 C 316.400 642.790,316.813 642.350,316.951 642.369 C 317.435 642.435,319.576 640.285,319.365 639.944 C 319.248 639.755,319.306 639.600,319.494 639.600 C 320.031 639.600,322.910 636.787,324.484 634.725 C 325.272 633.693,326.025 632.958,326.158 633.091 C 326.291 633.224,326.400 633.129,326.400 632.880 C 326.400 632.631,327.036 631.791,327.813 631.013 C 328.591 630.236,329.091 629.600,328.924 629.600 C 328.758 629.600,329.022 629.320,329.511 628.977 C 330.000 628.635,330.400 628.207,330.400 628.028 C 330.400 627.848,331.030 627.013,331.800 626.172 C 332.570 625.331,333.200 624.428,333.200 624.165 C 333.200 623.901,333.452 623.589,333.760 623.471 C 334.434 623.212,338.000 618.296,338.000 617.626 C 338.000 617.366,338.180 617.264,338.400 617.400 C 338.620 617.536,338.800 617.410,338.800 617.120 C 338.800 616.829,339.257 616.099,339.816 615.496 C 340.375 614.893,340.728 614.400,340.600 614.400 C 340.473 614.400,340.564 614.175,340.803 613.900 C 341.610 612.971,344.000 609.133,344.000 608.765 C 344.000 608.564,344.147 608.400,344.326 608.400 C 344.641 608.400,345.258 607.388,347.252 603.600 C 347.774 602.610,348.327 601.743,348.482 601.673 C 348.638 601.602,349.869 599.352,351.219 596.673 C 352.569 593.993,354.100 590.990,354.621 590.000 C 356.196 587.009,358.000 582.906,358.000 582.315 C 358.000 582.010,358.151 581.589,358.336 581.380 C 358.521 581.171,358.908 580.370,359.196 579.600 C 359.484 578.830,359.944 577.660,360.217 577.000 C 361.181 574.675,361.351 574.205,361.776 572.699 C 361.947 572.094,362.428 570.930,362.844 570.114 C 363.260 569.298,363.600 568.140,363.600 567.539 C 363.600 566.939,363.750 566.355,363.932 566.242 C 364.115 566.129,364.496 564.993,364.778 563.718 C 365.061 562.443,365.474 561.053,365.698 560.629 C 366.085 559.894,367.127 555.897,367.373 554.200 C 367.528 553.134,368.011 551.145,368.296 550.400 C 368.423 550.070,368.487 549.562,368.439 549.270 C 368.391 548.979,368.523 548.529,368.732 548.270 C 368.942 548.012,369.220 547.080,369.351 546.200 C 369.724 543.682,370.376 539.533,370.640 538.000 C 371.335 533.950,371.936 528.921,372.218 524.800 C 372.361 522.710,372.548 520.460,372.632 519.800 C 372.793 518.541,372.804 498.269,372.801 192.500 L 372.800 3.200 307.400 3.200 L 242.000 3.200 242.003 192.500 " stroke="none" fill="#fc7c6c" fill-rule="evenodd"></path><path id="path1" d="M241.798 192.400 C 241.798 296.570,241.844 339.185,241.900 287.100 C 241.956 235.015,241.956 149.785,241.900 97.700 C 241.844 45.615,241.798 88.230,241.798 192.400 M372.998 192.400 C 372.998 296.570,373.044 339.185,373.100 287.100 C 373.156 235.015,373.156 149.785,373.100 97.700 C 373.044 45.615,372.998 88.230,372.998 192.400 M241.795 445.800 C 241.795 481.000,241.842 495.341,241.900 477.668 C 241.958 459.996,241.958 431.196,241.900 413.668 C 241.842 396.141,241.795 410.600,241.795 445.800 M372.995 445.800 C 372.995 481.000,373.042 495.341,373.100 477.668 C 373.158 459.996,373.158 431.196,373.100 413.668 C 373.042 396.141,372.995 410.600,372.995 445.800 " stroke="none" fill="#fc7c64" fill-rule="evenodd"></path><path id="path2" d="" stroke="none" fill="#1007c6c" fill-rule="evenodd"></path></g></svg>