<svg version="1.0" id="katman_1" xmlns="http://www.w3.org/2000/svg" xmlns:xlink="http://www.w3.org/1999/xlink" x="0" y="0" viewBox="0 0 600 450" xml:space="preserve"><style>.st2{fill-rule:evenodd;clip-rule:evenodd;fill:#e83663}</style><defs><path id="SVGID_1_" d="M49.4 190.6h500.5v69.6H49.4z"/></defs><clipPath id="SVGID_00000047748851579876006190000016478644967186158469_"><use xlink:href="#SVGID_1_" style="overflow:visible"/></clipPath><path class="st2" d="M52.7 258.2c-2.5 0-3.2-1.2-3.2-3.3v-55.6c0-2.6 1.2-3.3 3.2-3.3h11c2 0 3.2.6 3.2 3.3v43"/><path d="m52.7 190.8 66.9 24.2c2.9 1.4 3.3 2.1 3.3 4.6v10.8c0 2.4-.4 3.3-3.3 4.6l-66.9 24.3c-1.5.6-3.2.1-3.2-2V245c0-2.9.9-3.7 3.6-4.6L99.2 225 53 209.6c-2.7-.9-3.6-1.7-3.6-4.7V193c.1-2.3 1.9-2.7 3.3-2.2" style="fill-rule:evenodd;clip-rule:evenodd;fill:#191832"/><path class="st2" d="m76.4 190.8 66.9 24.2c2.9 1.4 3.3 2.1 3.3 4.6v10.8c0 2.4-.4 3.3-3.3 4.6l-66.9 24.3c-1.5.6-3.2.1-3.2-2V245c0-2.9.9-3.7 3.6-4.6l46.2-15.3-46.2-15.4c-2.7-.9-3.6-1.7-3.6-4.7v-12c0-2.3 1.7-2.7 3.2-2.2"/></svg>