<svg viewBox="78.08 85.28 241.6 231.2" xmlns:xlink="http://www.w3.org/1999/xlink" xmlns="http://www.w3.org/2000/svg" version="1.1" id="svg" style="max-height: 500px" width="241.6" height="231.2"><g id="svgg"><path fill-rule="evenodd" fill="#042333" stroke="none" d="M97.656 73.505 C 82.550 76.760,71.905 86.482,67.671 100.889 L 66.612 104.492 66.493 197.852 C 66.413 260.739,66.506 292.215,66.779 294.288 C 68.786 309.535,79.757 321.838,95.121 326.073 L 99.023 327.148 200.000 327.148 L 300.977 327.148 304.832 326.071 C 321.798 321.330,332.209 308.573,333.600 290.820 C 334.081 284.677,334.082 115.111,333.601 108.594 C 332.371 91.926,321.528 78.734,305.273 74.128 L 302.148 73.242 200.781 73.184 C 136.556 73.147,98.770 73.265,97.656 73.505 M142.755 124.422 C 178.041 130.575,177.663 180.574,142.285 186.509 L 140.625 186.787 140.646 175.327 L 140.667 163.867 142.502 162.695 C 149.235 158.393,145.945 147.673,137.891 147.673 C 129.882 147.673,126.612 158.374,133.300 162.695 L 135.114 163.867 135.135 175.311 L 135.156 186.754 133.691 186.506 C 115.744 183.467,103.987 167.510,106.990 150.266 C 109.973 133.135,126.061 121.511,142.755 124.422 M208.763 124.993 C 212.956 126.066,219.141 129.347,219.141 130.499 C 219.141 131.038,213.893 139.830,213.566 139.837 C 213.401 139.841,212.580 139.411,211.742 138.882 C 207.751 136.363,200.512 135.188,197.072 136.502 C 193.168 137.993,192.025 141.999,194.730 144.704 C 196.033 146.007,197.407 146.741,206.387 150.928 C 218.414 156.536,222.738 164.868,218.367 174.013 C 212.619 186.037,192.959 188.119,181.381 177.931 L 179.551 176.321 182.770 171.570 L 185.990 166.820 188.014 168.432 C 194.379 173.501,202.530 174.515,206.333 170.712 C 209.932 167.113,207.526 162.972,200.076 159.944 C 185.789 154.137,181.055 149.469,181.055 141.191 C 181.055 129.156,194.441 121.330,208.763 124.993 M252.734 125.410 C 264.290 127.218,269.926 141.495,262.376 149.834 L 260.689 151.697 263.288 154.267 C 273.076 163.944,268.913 178.685,255.273 182.644 C 253.305 183.215,250.757 183.351,239.355 183.490 L 225.781 183.656 225.781 154.230 L 225.781 124.805 237.988 124.909 C 244.702 124.966,251.338 125.191,252.734 125.410 M287.110 154.199 L 287.109 183.594 281.055 183.594 L 275.000 183.594 275.000 154.199 L 275.001 124.805 281.055 124.805 L 287.110 124.805 287.110 154.199 M237.891 154.049 L 237.891 173.438 244.153 173.438 C 253.925 173.438,257.410 170.829,256.425 164.256 C 255.732 159.636,253.869 158.530,245.605 157.837 C 245.444 157.824,245.313 155.553,245.313 152.791 L 245.313 147.769 247.895 147.528 C 252.486 147.099,253.892 145.666,253.899 141.406 C 253.908 136.157,252.297 135.105,243.848 134.845 L 237.891 134.661 237.891 154.049 M181.641 223.826 L 181.641 230.854 183.408 229.505 C 187.582 226.319,193.554 226.630,196.228 230.172 C 197.809 232.268,198.042 233.996,198.045 243.652 L 198.047 252.734 194.922 252.734 L 191.797 252.734 191.797 244.752 C 191.797 234.879,191.147 233.208,187.305 233.205 C 182.809 233.202,181.862 235.158,181.709 244.754 L 181.583 252.734 178.487 252.734 L 175.391 252.734 175.391 234.766 L 175.391 216.797 178.516 216.797 L 181.641 216.797 181.641 223.826 M208.594 223.230 L 208.594 229.664 210.000 228.709 C 217.050 223.925,226.172 230.205,226.172 239.844 C 226.172 250.211,218.048 255.184,205.810 252.311 L 202.344 251.497 202.344 234.147 L 202.344 216.797 205.469 216.797 L 208.594 216.797 208.594 223.230 M287.891 226.458 L 287.891 236.119 291.901 232.122 L 295.912 228.125 299.555 228.125 L 303.199 228.125 299.058 232.477 C 296.369 235.303,295.036 236.980,295.256 237.262 C 295.835 238.001,304.688 252.350,304.688 252.548 C 304.688 252.650,303.044 252.734,301.035 252.734 L 297.383 252.734 293.942 247.054 L 290.501 241.373 289.196 242.638 L 287.891 243.903 287.891 248.319 L 287.891 252.734 284.668 252.734 L 281.445 252.735 281.551 234.766 L 281.656 216.797 284.773 216.797 L 287.891 216.797 287.891 226.458 M117.638 218.834 C 119.216 219.592,121.204 220.824,122.055 221.572 L 123.603 222.932 121.339 225.305 L 119.075 227.679 117.375 226.381 C 110.032 220.777,100.749 224.876,100.090 234.014 C 99.348 244.300,109.678 250.204,117.405 243.910 L 119.432 242.260 121.649 244.500 L 123.866 246.741 122.162 248.311 C 110.469 259.089,92.578 251.134,92.578 235.156 C 92.578 221.891,105.916 213.204,117.638 218.834 M142.231 227.945 C 147.084 229.657,147.824 231.629,147.974 243.262 L 148.097 252.734 144.947 252.734 L 141.797 252.734 141.797 251.476 C 141.797 250.245,141.784 250.236,141.211 251.054 C 138.619 254.755,128.879 253.383,126.815 249.026 C 123.902 242.878,128.718 237.548,137.514 237.185 L 141.797 237.009 141.797 235.974 C 141.797 232.534,136.219 231.278,131.832 233.730 L 130.094 234.702 128.523 232.730 C 126.534 230.230,126.483 230.407,129.590 228.996 C 133.598 227.176,138.820 226.742,142.231 227.945 M169.434 228.640 C 171.838 229.884,171.798 229.714,170.312 232.304 L 169.148 234.335 166.898 233.295 C 163.004 231.496,158.984 231.965,158.984 234.219 C 158.984 235.337,159.900 235.973,163.413 237.295 C 171.897 240.488,174.762 245.881,170.330 250.313 C 166.664 253.979,155.415 253.897,152.331 250.180 C 151.983 249.760,153.929 245.703,154.478 245.703 C 154.542 245.703,155.581 246.155,156.788 246.708 C 160.671 248.486,164.878 248.475,165.694 246.685 C 166.435 245.058,165.353 244.028,161.220 242.427 C 154.304 239.747,151.486 235.553,153.711 231.251 C 155.711 227.383,164.259 225.963,169.434 228.640 M246.719 228.279 C 250.925 230.237,251.563 232.281,251.563 243.799 L 251.563 252.734 248.505 252.734 L 245.448 252.734 245.625 251.465 L 245.803 250.195 244.869 251.056 C 240.164 255.388,230.732 252.870,229.859 247.048 C 228.982 241.197,233.579 237.366,241.527 237.326 L 245.749 237.305 245.504 235.938 C 244.884 232.482,240.390 231.405,236.032 233.666 L 234.010 234.715 232.435 232.736 C 230.439 230.230,230.389 230.408,233.496 228.996 C 237.958 226.970,243.286 226.681,246.719 228.279 M273.529 228.120 C 274.669 228.546,276.207 229.400,276.945 230.016 L 278.288 231.137 276.308 233.213 L 274.329 235.288 273.158 234.454 C 268.674 231.261,263.192 233.260,262.108 238.482 C 260.631 245.597,267.590 250.192,273.301 245.872 L 274.531 244.942 276.373 247.097 C 278.539 249.632,278.445 249.899,274.728 251.779 C 265.643 256.376,255.686 250.344,255.670 240.234 C 255.655 230.593,264.358 224.689,273.529 228.120 M211.722 233.422 C 208.717 234.753,208.594 235.056,208.594 241.093 L 208.594 246.504 209.596 246.885 C 213.012 248.184,217.559 246.679,219.071 243.750 C 222.054 237.972,217.115 231.031,211.722 233.422 M134.961 241.583 C 129.629 243.544,132.059 249.325,137.765 248.255 C 140.595 247.724,143.366 242.813,141.490 241.654 C 140.590 241.097,136.406 241.052,134.961 241.583 M238.914 241.400 C 235.588 242.455,234.737 246.423,237.528 247.866 C 239.673 248.975,242.668 248.328,244.479 246.364 C 245.641 245.103,246.106 242.035,245.188 241.683 C 244.004 241.228,240.020 241.049,238.914 241.400" id="path0"/><path fill-rule="evenodd" fill="#fbfbfb" stroke="none" d="M0.000 200.000 L 0.000 400.000 200.000 400.000 L 400.000 400.000 400.000 200.000 L 400.000 0.000 200.000 0.000 L 0.000 0.000 0.000 200.000 M301.953 73.444 C 317.340 76.033,329.163 87.290,333.127 103.125 C 333.922 106.299,334.373 284.293,333.606 291.871 C 331.937 308.355,322.080 320.740,306.836 325.504 C 300.612 327.449,304.081 327.393,198.242 327.267 L 98.633 327.148 95.313 326.231 C 81.539 322.428,71.197 312.223,67.505 298.792 L 66.602 295.508 66.602 200.000 L 66.602 104.492 67.549 101.172 C 71.978 85.659,84.842 74.694,100.438 73.139 C 105.271 72.657,299.019 72.950,301.953 73.444 M195.419 124.780 C 186.026 127.056,179.628 135.666,181.241 143.862 C 182.464 150.081,187.090 154.461,196.567 158.379 C 206.543 162.502,208.680 164.386,207.868 168.335 C 206.589 174.559,195.647 174.697,188.142 168.583 L 186.034 166.866 182.831 171.617 L 179.628 176.367 181.123 177.672 C 196.077 190.726,221.050 183.478,219.796 166.448 C 219.258 159.149,215.201 154.971,203.443 149.605 C 194.642 145.589,192.488 143.705,193.166 140.617 C 194.320 135.363,202.688 134.235,210.690 138.255 C 212.788 139.309,213.758 139.617,213.999 139.307 C 214.187 139.065,215.452 136.951,216.811 134.609 L 219.281 130.351 218.137 129.420 C 213.022 125.261,202.394 123.090,195.419 124.780 M225.781 154.335 L 225.781 183.670 239.160 183.488 C 253.598 183.291,254.815 183.137,259.286 180.950 C 270.094 175.664,271.653 160.987,262.225 153.278 L 260.263 151.673 261.543 150.651 C 266.788 146.466,266.748 135.091,261.469 129.809 C 257.307 125.645,254.257 125.016,238.184 125.007 L 225.781 125.000 225.781 154.335 M275.000 154.297 L 275.000 183.594 281.055 183.594 L 287.109 183.594 287.109 154.297 L 287.109 125.000 281.055 125.000 L 275.000 125.000 275.000 154.297 M249.827 135.203 C 252.182 135.796,253.740 137.603,254.090 140.148 C 254.744 144.909,252.252 147.656,247.278 147.656 L 245.313 147.656 245.313 152.734 L 245.313 157.813 247.559 157.815 C 254.781 157.822,258.678 163.366,255.671 169.357 C 253.905 172.874,252.970 173.221,244.854 173.371 L 237.891 173.501 237.891 154.133 L 237.891 134.766 242.991 134.766 C 245.796 134.766,248.873 134.962,249.827 135.203 M175.391 234.766 L 175.391 252.734 178.516 252.734 L 181.641 252.734 181.641 245.241 C 181.641 238.546,181.724 237.575,182.422 236.133 C 183.938 233.001,188.108 232.170,190.469 234.531 L 191.797 235.859 191.797 244.297 L 191.797 252.734 194.951 252.734 L 198.106 252.734 197.979 242.871 C 197.834 231.667,197.599 230.695,194.550 228.677 C 191.402 226.594,185.839 227.251,182.831 230.061 L 181.641 231.173 181.641 223.985 L 181.641 216.797 178.516 216.797 L 175.391 216.797 175.391 234.766 M202.344 234.121 L 202.344 251.446 205.371 252.188 C 217.898 255.258,225.977 250.419,225.977 239.844 C 225.977 230.128,217.466 224.096,210.216 228.673 L 208.594 229.697 208.594 223.247 L 208.594 216.797 205.469 216.797 L 202.344 216.797 202.344 234.121 M281.641 234.766 L 281.641 252.734 284.570 252.734 L 287.500 252.734 287.500 248.517 L 287.500 244.299 289.029 242.807 L 290.557 241.314 291.496 242.825 C 292.012 243.656,293.566 246.218,294.948 248.519 L 297.461 252.701 301.071 252.686 C 304.500 252.671,304.661 252.633,304.281 251.924 C 304.062 251.514,302.256 248.584,300.267 245.413 C 298.279 242.243,296.249 238.991,295.757 238.187 L 294.862 236.725 299.055 232.425 L 303.249 228.125 299.538 228.125 L 295.827 228.125 291.663 232.394 L 287.500 236.664 287.500 226.730 L 287.500 216.797 284.570 216.797 L 281.641 216.797 281.641 234.766 M105.510 217.806 C 88.647 222.340,88.460 248.176,105.258 252.523 C 111.437 254.121,117.199 252.614,122.415 248.035 L 123.877 246.751 121.621 244.472 L 119.365 242.192 117.983 243.535 C 111.054 250.274,100.001 245.227,100.000 235.323 C 99.999 225.192,110.339 220.088,117.726 226.573 L 119.056 227.741 121.051 225.558 C 123.494 222.885,123.498 222.766,121.191 221.027 C 116.584 217.552,110.840 216.372,105.510 217.806 M131.615 228.238 C 128.395 229.336,126.775 230.355,127.252 230.983 C 127.445 231.237,128.166 232.162,128.853 233.039 L 130.102 234.633 132.294 233.527 C 134.856 232.235,137.958 232.047,140.082 233.054 C 141.344 233.653,141.492 233.914,141.965 236.373 C 142.069 236.913,141.472 237.033,137.825 237.206 C 128.643 237.641,123.763 243.078,127.049 249.213 C 129.366 253.541,137.577 254.555,141.174 250.958 C 141.744 250.388,141.797 250.436,141.797 251.535 L 141.797 252.734 144.958 252.734 L 148.119 252.734 147.978 243.457 C 147.820 232.961,147.503 231.584,144.774 229.502 C 141.677 227.140,136.341 226.627,131.615 228.238 M157.897 228.060 C 149.895 230.910,151.677 238.373,161.314 242.377 C 165.030 243.921,166.016 244.670,166.016 245.950 C 166.016 248.333,160.866 248.774,156.642 246.752 C 155.060 245.995,154.433 245.854,154.221 246.205 C 154.063 246.466,153.482 247.420,152.930 248.325 L 151.927 249.969 153.991 251.149 C 161.775 255.597,171.878 252.543,171.874 245.743 C 171.871 241.917,169.991 239.935,164.212 237.666 C 159.846 235.952,158.984 235.378,158.984 234.180 C 158.984 231.822,163.262 231.346,167.152 233.271 L 169.145 234.258 170.317 232.095 C 171.620 229.689,171.659 229.782,168.750 228.414 C 166.235 227.231,160.727 227.052,157.897 228.060 M236.426 227.947 C 234.316 228.515,231.452 229.826,231.110 230.380 C 231.003 230.552,231.617 231.591,232.472 232.689 L 234.028 234.686 235.803 233.694 C 240.181 231.247,245.704 232.640,245.703 236.191 L 245.702 237.305 241.894 237.328 C 234.011 237.376,230.076 240.192,230.080 245.781 C 230.084 252.405,239.442 255.926,244.496 251.205 L 245.703 250.077 245.703 251.406 L 245.703 252.734 248.658 252.734 L 251.613 252.734 251.490 243.262 C 251.355 232.828,251.200 232.106,248.565 229.605 C 246.267 227.423,241.029 226.708,236.426 227.947 M263.684 228.140 C 253.468 231.814,252.769 246.942,262.581 252.004 C 266.453 254.002,273.293 253.294,276.480 250.566 L 278.135 249.150 276.274 247.093 L 274.414 245.036 273.350 245.922 C 268.620 249.859,261.736 246.488,261.736 240.234 C 261.736 233.828,268.880 230.446,273.528 234.652 C 274.296 235.347,275.612 234.429,277.388 231.958 L 278.143 230.909 276.474 229.773 C 272.834 227.296,267.814 226.655,263.684 228.140 M217.163 233.913 C 220.896 236.678,220.845 243.508,217.070 246.260 C 215.770 247.207,210.779 247.626,209.424 246.901 C 207.967 246.122,208.167 236.102,209.668 234.666 C 211.736 232.689,215.060 232.355,217.163 233.913 M141.891 241.659 C 143.099 242.406,141.394 246.418,139.334 247.673 C 135.099 250.256,129.991 246.449,132.837 242.831 C 134.094 241.232,139.970 240.472,141.891 241.659 M245.299 241.594 C 246.830 242.539,245.008 246.756,242.600 247.842 C 237.188 250.282,232.941 244.440,238.086 241.632 C 239.249 240.997,244.292 240.971,245.299 241.594" id="path1"/><path fill-rule="evenodd" fill="#04b6f7" stroke="none" d="M133.461 124.270 C 122.439 125.686,111.965 134.304,108.377 144.907 C 101.910 164.023,113.511 183.089,133.691 186.506 L 135.156 186.754 135.153 175.311 L 135.150 163.867 133.587 162.975 C 124.881 158.003,132.092 144.207,141.211 148.390 C 147.599 151.320,147.731 161.469,141.408 163.476 C 140.648 163.717,140.625 164.057,140.625 175.256 L 140.625 186.787 142.285 186.509 C 166.067 182.519,176.967 156.484,163.064 136.877 C 156.604 127.768,144.930 122.797,133.461 124.270" id="path2"/><path fill-rule="evenodd" fill="#a1a6a9" stroke="none" d="M287.668 226.563 C 287.668 231.611,287.724 233.677,287.792 231.152 C 287.860 228.628,287.860 224.497,287.792 221.973 C 287.724 219.448,287.668 221.514,287.668 226.563 M287.636 247.266 C 287.636 249.092,287.704 249.839,287.786 248.926 C 287.868 248.013,287.868 246.519,287.786 245.605 C 287.704 244.692,287.636 245.439,287.636 247.266" id="path3"/><path fill-rule="evenodd" fill="#80807c" stroke="none" d="" id="path4"/><path fill-rule="evenodd" fill="#7c747c" stroke="none" d="M106.944 72.943 C 107.863 73.025,109.269 73.024,110.069 72.940 C 110.869 72.856,110.117 72.789,108.398 72.790 C 106.680 72.792,106.025 72.860,106.944 72.943 M293.848 72.926 C 294.224 73.024,294.839 73.024,295.215 72.926 C 295.591 72.827,295.283 72.747,294.531 72.747 C 293.779 72.747,293.472 72.827,293.848 72.926 M226.270 124.879 C 226.646 124.977,227.261 124.977,227.637 124.879 C 228.013 124.780,227.705 124.700,226.953 124.700 C 226.201 124.700,225.894 124.780,226.270 124.879 M247.363 158.082 C 247.739 158.180,248.354 158.180,248.730 158.082 C 249.106 157.984,248.799 157.903,248.047 157.903 C 247.295 157.903,246.987 157.984,247.363 158.082" id="path5"/><path fill-rule="evenodd" fill="#c4c4c4" stroke="none" d="" id="path6"/><path fill-rule="evenodd" fill="#cfd5d8" stroke="none" d="" id="path7"/><path fill-rule="evenodd" fill="#bcbcb4" stroke="none" d="" id="path8"/></g></svg>