<svg y="0px" x="0px" viewBox="0 0 64.8 70.08" data-name="Layer 1" xmlns="http://www.w3.org/2000/svg" style="max-height: 500px" width="64.8" height="70.08"><title>smartcity technology toll road</title><path d="M55,47H49a3,3,0,0,1-3-3V30a1,1,0,0,0-1-1H19a1,1,0,0,0-1,1V44a3,3,0,0,1-3,3H9a3,3,0,0,1-3-3V30a1,1,0,0,0-1-1,3,3,0,0,1-3-3V20a3,3,0,0,1,3-3H59a3,3,0,0,1,3,3v6a3,3,0,0,1-3,3,1,1,0,0,0-1,1V44A3,3,0,0,1,55,47ZM19,27H45a3,3,0,0,1,3,3V44a1,1,0,0,0,1,1h6a1,1,0,0,0,1-1V30a3,3,0,0,1,3-3,1,1,0,0,0,1-1V20a1,1,0,0,0-1-1H5a1,1,0,0,0-1,1v6a1,1,0,0,0,1,1,3,3,0,0,1,3,3V44a1,1,0,0,0,1,1h6a1,1,0,0,0,1-1V30A3,3,0,0,1,19,27Z"/><path d="M55,47H49a3,3,0,0,1-3-3V30a1,1,0,0,0-1-1H19a1,1,0,0,0-1,1V44a3,3,0,0,1-3,3H9a3,3,0,0,1-3-3V30a1,1,0,0,0-1-1,3,3,0,0,1-3-3V20a3,3,0,0,1,3-3H59a3,3,0,0,1,3,3v6a3,3,0,0,1-3,3,1,1,0,0,0-1,1V44A3,3,0,0,1,55,47ZM19,27H45a3,3,0,0,1,3,3V44a1,1,0,0,0,1,1h6a1,1,0,0,0,1-1V30a3,3,0,0,1,3-3,1,1,0,0,0,1-1V20a1,1,0,0,0-1-1H5a1,1,0,0,0-1,1v6a1,1,0,0,0,1,1,3,3,0,0,1,3,3V44a1,1,0,0,0,1,1h6a1,1,0,0,0,1-1V30A3,3,0,0,1,19,27Z"/><path d="M55,47H49a3,3,0,0,1-3-3V30a1,1,0,0,0-1-1H19a1,1,0,0,0-1,1V44a3,3,0,0,1-3,3H9a3,3,0,0,1-3-3V30a1,1,0,0,0-1-1,3,3,0,0,1-3-3V20a3,3,0,0,1,3-3H59a3,3,0,0,1,3,3v6a3,3,0,0,1-3,3,1,1,0,0,0-1,1V44A3,3,0,0,1,55,47ZM19,27H45a3,3,0,0,1,3,3V44a1,1,0,0,0,1,1h6a1,1,0,0,0,1-1V30a3,3,0,0,1,3-3,1,1,0,0,0,1-1V20a1,1,0,0,0-1-1H5a1,1,0,0,0-1,1v6a1,1,0,0,0,1,1,3,3,0,0,1,3,3V44a1,1,0,0,0,1,1h6a1,1,0,0,0,1-1V30A3,3,0,0,1,19,27Z"/><path d="M46.55,19H17.45a1,1,0,0,1-1-1.1L17.82,4.69A3,3,0,0,1,20.8,2H43.2a3,3,0,0,1,3,2.69L47.55,17.9a1,1,0,0,1-1,1.1Zm-28-2H45.44L44.19,4.9a1,1,0,0,0-1-.9H20.8a1,1,0,0,0-1,.9Z"/><path d="M48.78,62H15.22a3,3,0,0,1-3-3.31L13.56,45.9a1,1,0,0,1,1-.9H15a1,1,0,0,0,1-1V30a3,3,0,0,1,3-3H45a3,3,0,0,1,3,3V44a1,1,0,0,0,1,1h.45a1,1,0,0,1,1,.9l1.32,12.79a3,3,0,0,1-3,3.31ZM15.46,47,14.22,58.9a1,1,0,0,0,1,1.1H48.78a1,1,0,0,0,1-1.1L48.54,47A3,3,0,0,1,46,44V30a1,1,0,0,0-1-1H19a1,1,0,0,0-1,1V44A3,3,0,0,1,15.46,47Z"/><path d="M32,13a1,1,0,0,1-1-1V3a1,1,0,0,1,2,0v9A1,1,0,0,1,32,13Z"/><path d="M32,38a1,1,0,0,1-1-1V28a1,1,0,0,1,2,0v9A1,1,0,0,1,32,38Z"/><path d="M32,53a1,1,0,0,1-1-1V43a1,1,0,0,1,2,0v9A1,1,0,0,1,32,53Z"/><path d="M32,62a1,1,0,0,1-1-1V58a1,1,0,0,1,2,0v3A1,1,0,0,1,32,62Z"/><text font-family="'Helvetica Neue', Helvetica, Arial-Unicode, Arial, Sans-serif" font-weight="bold" font-size="5px" fill="#000000" y="79" x="0">Created by Misbahul Munir</text><text font-family="'Helvetica Neue', Helvetica, Arial-Unicode, Arial, Sans-serif" font-weight="bold" font-size="5px" fill="#000000" y="84" x="0">from the Noun Project</text></svg>